<?xml version="1.0" encoding="utf-8"?>
<!-- Generator: Adobe Illustrator 26.3.1, SVG Export Plug-In . SVG Version: 6.00 Build 0)  -->
<svg version="1.1" id="Calque_1" xmlns="http://www.w3.org/2000/svg" xmlns:xlink="http://www.w3.org/1999/xlink" x="0px" y="0px"
	 viewBox="0 0 2000 2827" style="enable-background:new 0 0 2000 2827;" xml:space="preserve">
<style type="text/css">
	.st0{fill:#FFFFFF;}
</style>
<g id="logo_musée_x24_">
	<path class="st0" d="M1162.25,1257.78c-128.78,0-257.57,0-386.35,0c-12.14,0-10.42,0.44-10.48-10.23
		c-0.06-11.88,0-11.88,12.01-11.88c257.12,0,514.24,0,771.37,0c11.06,0,10.23-1.78,10.17,10.29c-0.06,13.09,1.65,11.75-11.69,11.75
		C1418.93,1257.78,1290.59,1257.78,1162.25,1257.78z"/>
	<path class="st0" d="M815.36,1138.59c-97.4,0-194.73,0-292.13,0c-11.12,0-10.04,1.33-10.04-9.78c-0.06-12.26,0-12.26,12.39-12.26
		c194.29,0,388.57,0,582.86,0c9.85,0,9.97,0,9.85,10.1c-0.13,13.28,2.22,11.88-12.14,11.88
		C1009.2,1138.59,912.25,1138.52,815.36,1138.59z"/>
	<path class="st0" d="M616.94,1355.05c83.17,0,166.33,0.06,249.5-0.13c6.8,0,9.21,1.4,8.83,8.64c-0.76,14.3,1.4,12.52-12.52,12.52
		c-164.24,0.06-328.53,0-492.77,0c-2.03,0-4.13,0-6.16,0c-0.89,0-2.1,0.25-2.73-0.19c-6.42-4.57-1.52-11.25-2.86-16.77
		c-0.89-3.49,1.46-4.19,4.45-4.13c5.53,0.13,10.99,0,16.52,0C458.36,1355.05,537.65,1355.05,616.94,1355.05z"/>
	<path class="st0" d="M358.1,1070.99c0-5.97-0.13-11.88,0.06-17.85c0.06-2.22-1.46-6.04,1.78-6.42c3.88-0.44,9.02-2.92,11.75,1.91
		c1.91,3.3,3.11,2.16,5.21,0.7c9.21-6.35,18.3-6.86,26.81,1.21c2.41,2.29,3.94,1.14,5.78-0.32c4.83-3.88,10.17-5.85,16.52-5.46
		c11.88,0.7,18.49,7.24,18.62,19.12c0.13,8.45-0.38,16.96,0.13,25.35c0.38,7.18-4.19,5.97-8.51,6.23c-4.45,0.25-7.43-0.19-7.05-6.04
		c0.51-7.75,0.13-15.57,0.13-23.32c0-5.46-2.03-9.34-7.94-10.04c-6.1-0.7-10.29,2.03-11.05,8.51c-0.83,7.24-0.76,14.61-0.51,21.92
		c0.19,5.85-0.44,9.28-7.88,9.21c-6.86-0.06-8.58-2.48-8.13-8.77c0.51-7.05,0-14.17,0.13-21.28c0.06-5.02-1.78-8.64-6.93-9.47
		c-5.53-0.89-9.97,1.02-11.94,6.73c-2.03,5.97-1.14,12.26-1.27,18.36c-0.06,2.03,0.13,4.13-0.06,6.16
		c-0.25,2.61,1.27,6.16-1.97,7.37c-3.88,1.4-8.2,1.08-12.2,0.13c-2.22-0.57-1.46-3.05-1.46-4.77
		C358.1,1083.82,358.1,1077.4,358.1,1070.99z"/>
	<path class="st0" d="M413.76,1409.5c-0.06-2.03,1.46-5.4-1.59-5.85c-3.62-0.57-9.02-2.22-10.86,1.02c-2.54,4.51-4,1.84-6.16,0.64
		c-9.59-5.27-23-4.26-30.31,2.29c-9.09,8.13-11.25,25.29-4.45,35.26c6.54,9.59,21.67,12.96,33.36,7.37c1.33-0.64,2.6-2.67,4.13-1.21
		c1.78,1.72-0.13,3.43-0.95,4.89c-3.94,6.99-14.61,9.85-21.6,4.96c-4.96-3.43-9.97-2.54-15.12-2.67c-2.41-0.06-3.11,1.08-2.41,3.49
		c0.64,2.35,1.97,4.13,3.81,5.53c9.91,7.75,21.16,7.81,32.59,5.08c13.28-3.24,19.12-10.86,19.57-24.46c0.19-6.16,0-12.33,0.06-18.55
		C413.82,1421.38,414.01,1415.4,413.76,1409.5z M385.11,1441.96c-7.37-0.13-13.28-6.61-13.34-14.55c-0.06-8.2,5.72-14.3,13.41-14.1
		c7.75,0.19,13.22,6.16,13.15,14.42C398.32,1436.12,392.86,1442.09,385.11,1441.96z"/>
	<path class="st0" d="M600.68,1189.48c0-5.97-0.13-11.88,0.06-17.85c0.06-2.29-1.02-5.85,2.67-6.04c3.56-0.13,8.51-2.54,10.61,1.78
		c1.84,3.81,2.99,2.67,5.34,1.08c9.66-6.48,17.15-6.16,26.62,1.21c2.41,1.91,4,1.27,5.91-0.44c5.97-5.59,13.28-5.72,20.65-4.77
		c8.07,1.02,13.98,7.31,14.36,15.82c0.44,9.78,0,19.63,0.25,29.48c0.13,5.78-3.94,4.64-7.05,4.45c-3.37-0.19-8.45,2.03-8.39-4.64
		c0.06-7.56,0.06-15.12,0-22.62c-0.13-8.26-2.99-11.88-9.09-11.94c-6.16-0.13-10.29,4.19-10.67,11.75
		c-0.32,7.31-0.44,14.61-0.06,21.92c0.32,6.23-3.49,5.72-7.56,5.65c-4.13-0.06-8.51,0.89-8.2-5.78c0.32-7.75,0.13-15.57,0.06-23.32
		c-0.06-4.64-1.02-8.77-6.48-9.85c-5.4-1.08-9.28,0.89-11.94,5.72c-3.05,5.59-1.52,11.63-1.91,17.54c-0.13,2.29,0,4.57,0,6.86
		c-0.19,10.93,1.14,8.45-9.15,8.96c-5.08,0.25-6.23-1.91-6.04-6.42C600.87,1201.8,600.68,1195.64,600.68,1189.48z"/>
	<path class="st0" d="M837.66,1189.92c0-5.97-0.06-11.88,0.06-17.85c0.06-2.35-1.02-5.91,2.35-6.29c3.75-0.44,8.58-2.54,11.25,1.78
		c1.84,2.99,2.86,2.35,5.21,0.89c10.23-6.42,16.96-6.23,26.75,1.27c2.67,2.03,4.32,0.95,5.91-0.51c5.15-4.77,11.37-5.4,17.92-5.02
		c9.97,0.57,16.39,6.23,17.09,16.2c0.64,9.78,0.32,19.63,0.38,29.48c0,6.16-4.77,4.32-8.01,4.38c-3.24,0-7.94,1.72-7.88-4.51
		c0.06-8.01,0.06-16.01-0.06-24.02c-0.13-7.43-2.73-10.48-8.64-10.67c-5.85-0.19-10.1,3.49-10.55,10.23
		c-0.51,7.75-0.51,15.57-0.13,23.32c0.44,7.56-4.77,5.4-8.7,5.78c-4.38,0.38-7.5,0-7.12-5.91c0.44-7.5,0.19-15.06,0.06-22.62
		c-0.13-7.5-2.67-10.61-8.64-10.8c-5.97-0.19-10.42,3.43-10.93,9.91c-0.57,7.5-0.7,15.12-0.25,22.62c0.38,6.48-3.05,6.93-8.01,6.86
		c-4.77-0.06-8.7,0-8.13-6.67C837.98,1201.8,837.66,1195.83,837.66,1189.92z"/>
	<path class="st0" d="M891.53,1308.29c0-5.97-0.06-11.88,0.06-17.85c0.06-2.29-1.02-5.97,2.6-6.04c3.68-0.06,8.64-2.8,10.99,2.22
		c1.65,3.62,2.86,2.16,4.96,0.7c9.21-6.23,18.17-5.97,26.81,1.21c2.92,2.41,4.45,0.95,6.42-0.7c8.07-6.73,17.22-6.16,25.79-2.54
		c8.01,3.37,9.28,11.12,9.09,19.12c-0.19,7.75-0.19,15.57-0.06,23.32c0.06,3.56-1.33,4.64-4.83,4.83
		c-11.12,0.51-11.12,0.64-11.12-10.23c0-6.42-0.06-12.83,0-19.19c0.06-5.46-2.41-8.83-7.94-9.21c-5.4-0.38-9.47,1.78-10.67,7.43
		c-1.72,7.69-0.38,15.5-0.89,23.25c-0.19,2.54,1.52,6.23-1.72,7.31c-3.88,1.33-8.2,1.02-12.2,0c-2.22-0.57-1.46-3.11-1.46-4.77
		c-0.06-7.56-0.06-15.12-0.06-22.62c0-5.65-1.78-9.91-8.13-10.61c-5.72-0.64-10.23,2.92-11.44,9.28
		c-1.46,7.69-0.95,15.57-0.57,23.25c0.32,6.67-3.49,6.16-7.81,6.04c-4-0.13-8.51,1.08-7.94-5.78
		C891.92,1320.68,891.53,1314.51,891.53,1308.29z"/>
	<path class="st0" d="M990.14,1308.22c0-5.97-0.13-11.88,0.06-17.85c0.06-2.29-1.08-5.91,2.67-5.91s8.7-2.73,10.99,2.22
		c1.72,3.62,2.92,2.22,5.02,0.83c9.28-6.29,17.54-6.04,26.75,1.21c3.3,2.61,4.83,0.25,6.99-1.33c8.07-5.97,22.17-5.65,28.78,0.38
		c3.05,2.8,4.83,6.1,4.89,10.17c0.06,10.1-0.13,20.14,0.19,30.24c0.19,5.97-4.07,4.51-7.05,4.38c-3.3-0.13-8.45,2.22-8.32-4.64
		c0.13-7.75-0.06-15.57,0.06-23.32c0.06-5.4-1.52-9.66-7.56-10.42c-6.29-0.83-10.1,2.48-11.5,8.32c-1.84,7.88-1.14,16.01-0.7,23.95
		c0.38,8.01-4.83,5.78-9.02,6.29c-4.64,0.51-6.54-0.95-6.29-5.97c0.44-7.31,0.13-14.61,0.13-21.98c0-5.65-1.91-9.97-8.26-10.67
		c-5.85-0.64-10.29,2.86-11.56,9.28c-1.46,7.5-0.38,15.06-0.76,22.62c-0.13,2.29,1.21,5.78-2.29,6.35c-4,0.64-8.26,1.08-12.14-0.44
		c-1.65-0.64-0.95-2.86-0.95-4.38C990.14,1321.06,990.14,1314.64,990.14,1308.22z"/>
	<path class="st0" d="M535.36,1263.75c-6.1,0-8.89,1.46-8.01,8.01c0.44,3.37,0,6.86,0.13,10.23c0.13,3.62-1.02,4.45-4.38,2.73
		c-3.11-1.59-6.67-1.52-10.1-1.59c-10.04-0.32-17.92,3.49-22.36,12.77c-4.77,9.85-2.8,24.14,4.26,31.45
		c7.5,7.81,16.71,8.32,26.49,5.4c3.11-0.95,5.65-2.03,9.53-0.64c9.09,3.24,12.01,0.57,12.01-9.15c0-8.2,0-16.46,0-24.65
		c0-8.9-0.38-17.85,0.13-26.68C543.43,1265.4,541.27,1263.81,535.36,1263.75z M514.84,1322.84c-6.67-0.19-11.56-6.29-11.63-14.42
		c-0.06-7.81,5.21-14.1,11.75-14.1c7.43,0,12.26,5.72,12.13,14.36C527.04,1317.31,522.08,1323.09,514.84,1322.84z"/>
	<path class="st0" d="M410.9,1179.76c0-10.1,0-20.14,0-30.18c0-6.86-5.15-4.26-8.45-4.57c-3.3-0.32-7.31-1.08-6.99,4.57
		c0.19,3.88-0.13,7.81,0.06,11.69c0.19,4.38-0.44,6.23-5.65,4.26c-6.73-2.54-14.04-2.41-20.71,0.89
		c-11.88,5.97-16.52,22.87-10.36,36.66c4.83,10.8,19.5,15.5,31.96,10.29c2.41-1.02,4.32-1.78,7.43,0
		c7.69,4.32,12.77,0.76,12.77-8.13C410.9,1196.72,410.9,1188.21,410.9,1179.76L410.9,1179.76z M383.39,1204.22
		c-6.67,0.19-11.94-6.42-11.82-14.8c0.13-8.7,4.51-13.91,11.63-13.85c7.62,0.06,11.88,5.27,11.82,14.42
		C394.95,1198.05,390.12,1204.03,383.39,1204.22z"/>
	<path class="st0" d="M743.88,1167.37c-8.51-4.96-17.54-5.02-25.92,0.44c-2.6,1.72-2.99,0.38-4.7-1.02
		c-3.62-2.99-8.39-2.1-12.39-0.89c-3.24,1.02-1.59,4.83-1.65,7.31c-0.13,16.65,0.25,33.36-0.25,50c-0.19,6.61,3.43,6.16,7.69,6.1
		c4.32-0.06,9.02,0.95,8.39-6.23c-0.38-3.75-0.83-7.69,0.64-11.31c1.72-0.64,2.8,0.51,4,1.02c17.73,7.56,33.93-2.03,35.07-21.22
		C755.38,1181.92,753.09,1172.7,743.88,1167.37z M727.55,1204.28c-7.12,0.13-12.39-5.91-12.45-14.17c0-9.02,4.89-15.06,12.33-14.99
		c7.18,0,12.01,5.78,12.14,14.49C739.69,1197.67,734.42,1204.15,727.55,1204.28z"/>
	<path class="st0" d="M584.47,1409.11c-6.99-7.88-19.63-9.47-30.18-3.75c-1.84,1.02-2.92,2.8-5.27-0.57
		c-2.41-3.56-7.69-1.72-11.5-1.14c-3.88,0.51-2.1,4.45-2.16,6.86c-0.25,8.2-0.06,16.46-0.06,24.65c0,8.45,0.44,16.9-0.13,25.35
		c-0.44,6.48,1.84,8.2,8.01,8.13c5.59-0.06,8.83-1.02,7.62-7.43c-0.32-1.78,0.06-3.62-0.06-5.46c-0.25-4.7-0.25-7.31,6.1-4.38
		c10.55,4.83,23.44,1.08,28.97-7.05C592.99,1433.83,592.35,1418.01,584.47,1409.11z M562.94,1442.03
		c-7.43-0.25-12.26-5.91-12.2-14.36c0.06-8.7,5.4-14.8,12.77-14.61c7.05,0.19,11.75,6.16,11.69,14.8
		C575.14,1436.43,570.12,1442.22,562.94,1442.03z"/>
	<path class="st0" d="M749.16,1435.29c0-8.01,0.13-16.01-0.06-23.95c-0.06-2.61,1.59-6.61-1.14-7.43
		c-3.75-1.14-10.42-1.91-11.75,0.06c-3.43,4.89-5.4,1.59-8.13,0.32c-9.53-4.45-22.17-2.35-28.59,4.7
		c-7.18,7.94-8.83,22.62-3.62,32.15c5.02,9.15,15.69,13.79,26.3,12.07c4.07-0.64,8.39-5.97,11.31-2.61
		c2.22,2.48,0.95,8.32,0.7,12.58c-0.51,7.37,4.83,4.77,8.39,5.21c4.19,0.51,6.93-0.25,6.67-5.65
		C748.84,1453.59,749.16,1444.44,749.16,1435.29z M721.01,1442.03c-7.24,0.13-12.39-5.72-12.52-14.1
		c-0.06-8.77,5.08-14.99,12.39-14.87c7.5,0.13,12.71,6.23,12.71,14.87C733.65,1435.86,728.25,1441.9,721.01,1442.03z"/>
	<path class="st0" d="M601.44,1417.25c0-9.59,0.19-19.25-0.06-28.84c-0.19-7.18,4.89-5.08,8.58-5.27c3.68-0.25,7.62-0.57,7.05,5.34
		c-0.38,3.88,0,7.75-0.06,11.69c-0.06,4,0.7,6.42,5.46,3.94c1.97-1.02,4.32-1.65,6.61-1.84c13.6-1.14,24.65,3.49,24.08,19.5
		c-0.25,8.2-0.19,16.46,0,24.71c0.13,4-0.95,5.59-5.34,5.59c-10.48,0.06-10.48,0.32-10.48-10.17c0-5.97-0.19-11.88,0.06-17.85
		c0.19-5.78-1.46-10.04-7.75-10.93c-6.1-0.83-11.31,2.92-12.01,9.53c-0.76,7.24-0.95,14.68-0.44,21.92
		c0.44,6.35-2.03,7.43-7.81,7.56c-6.35,0.13-8.32-1.84-8.01-8.13C601.82,1435.1,601.44,1426.14,601.44,1417.25L601.44,1417.25z"/>
	<path class="st0" d="M728.44,1322.84c-7.05-0.06-5.59-5.15-5.65-9.28c-0.06-4.32,0.06-8.7-0.06-13.02
		c-0.19-8.07-3.94-13.15-11.63-15.82c-3.94-1.33-8.07-1.4-12.2-1.46c-8.26-0.32-16.07,1.27-22.3,7.05
		c-1.72,1.59-6.04,4.07-2.54,6.61c3.05,2.29,6.8,8.2,11.94,2.03c4.45-5.4,10.23-6.61,16.71-4.7c2.8,0.83,4.89,2.86,4.51,6.1
		c-0.38,3.3-3.3,2.54-5.4,2.73c-7.75,0.76-15.5,1.46-22.62,5.08c-5.21,2.67-7.69,7.12-7.24,12.9c0.38,5.4,2.99,9.28,8.32,11.37
		c8.77,3.49,17.09,2.1,25.1-2.1c2.6-1.33,3.94-1.72,6.35,0.64c4.13,4.07,9.4,4.07,14.68,1.97c3.24-1.27,3.05-4.26,3.56-6.86
		C730.16,1324.61,730.22,1322.84,728.44,1322.84z M706.14,1317.24c-1.65,3.18-8.07,6.61-12.58,6.61c-2.48-0.38-5.72-0.95-6.23-4.45
		c-0.44-3.24,2.29-4.77,4.96-5.53c3.49-0.95,7.05-1.59,10.61-2.22c1.52-0.25,3.3-0.64,4.26,1.14
		C707.99,1314.45,706.9,1315.91,706.14,1317.24z"/>
	<path class="st0" d="M521.77,1441.33c-2.67-0.25-3.43-1.97-3.43-4.26c-0.06-3.18,0-6.42,0-9.59h-0.06c0-2.54,0.06-5.02,0-7.56
		c-0.25-8.96-4.83-14.49-13.41-16.65c-6.8-1.72-13.47-1.65-20.39-0.19c-5.91,1.21-10.67,4-14.49,8.51
		c-0.95,1.08-2.48,2.22-1.21,4.13c2.41,3.75,9.91,4.64,13.09,1.52c5.27-5.15,12.52-6.54,17.54-3.49c2.41,1.46,3.88,3.56,3.49,6.23
		c-0.38,2.86-3.24,1.97-5.08,2.16c-7.75,0.64-15.5,1.08-22.68,4.77c-5.72,2.99-8.64,7.43-7.88,13.85c0.64,5.85,4.26,9.28,9.72,11.18
		c8.39,2.92,16.33,1.46,23.83-2.61c2.6-1.4,3.88-1.84,6.23,0.64c4.32,4.64,10.04,3.81,15.31,1.65c3.62-1.46,3.11-5.34,3.43-8.32
		C526.09,1440.06,523.29,1441.52,521.77,1441.33z M500.74,1437.58c-2.99,3.05-6.73,4.64-11.31,4.7c-2.48-0.25-5.65,0.13-6.35-3.49
		c-0.76-3.81,1.97-5.27,5.02-6.1c3.11-0.83,6.23-1.59,9.34-1.97c1.65-0.19,4-0.95,4.89,1.21
		C503.28,1434.02,502.13,1436.12,500.74,1437.58z"/>
	<path class="st0" d="M1360.54,1322.52c-2.73-0.44-3.81-2.22-3.75-4.83c0.06-3.18,0-6.42,0-9.59c0.57-8.89,1.14-18.43-9.09-22.24
		c-12.45-4.7-25.16-4.7-36.41,4c-2.16,1.65-5.97,3.81-2.8,7.5c3.62,4.19,9.02,4.57,11.88,1.27c4.26-4.83,12.58-6.8,17.47-4.07
		c2.29,1.33,4.19,3.11,3.49,6.04c-0.57,2.73-3.11,2.22-5.08,2.35c-7.31,0.57-14.55,1.52-21.47,4.32c-5.97,2.41-9.15,7.12-8.83,13.34
		c0.32,5.85,3.37,10.1,9.4,12.14c8.39,2.8,16.26,1.46,23.89-2.35c2.73-1.4,4.13-1.97,6.8,0.76c4.07,4,9.47,3.88,14.74,1.52
		c3.62-1.59,2.86-4.96,3.37-7.62C1364.86,1322.26,1362.19,1322.77,1360.54,1322.52z M1337.86,1320.1c-2.73,2.16-5.97,3.18-9.66,3.75
		c-2.92-0.25-6.04-1.08-6.73-4.38c-0.64-3.18,2.1-4.83,4.83-5.65c2.6-0.76,5.27-1.46,7.94-1.78c2.48-0.25,5.97-2.29,7.18,1.21
		C1342.44,1315.97,1340.02,1318.39,1337.86,1320.1z"/>
	<path class="st0" d="M1117.33,1199.26c-4.7-1.27-7.81-1.14-11.63,2.29c-5.72,5.15-13.91,4.13-18.42-1.4
		c-1.33-1.59-2.54-3.49-1.72-5.59c0.89-2.16,3.11-1.46,4.83-1.46c4.13-0.13,8.2,0,12.33,0v-0.06c4.83,0,9.59,0,14.42,0
		c4.57,0.06,6.42-1.78,5.97-6.67c-1.97-22.11-25.99-26.62-41.49-19.06c-5.72,2.8-9.78,7.37-11.56,13.72
		c-3.62,12.9,0.57,25.03,10.61,30.5c12.83,6.99,29.48,4.83,38.69-4.77C1123.18,1202.69,1123.43,1200.91,1117.33,1199.26z
		 M1090.71,1175.88c2.35-1.02,4.77-1.72,7.24-1.21c3.62,0.7,8.2,1.97,7.94,6.04c-0.25,4.45-4.96,1.65-7.62,2.35
		c-0.83,0.25-1.78,0-2.73,0c-1.14,0-2.29,0.13-3.37,0c-2.03-0.32-5.27,1.27-5.78-1.72C1085.95,1178.8,1088.3,1176.9,1090.71,1175.88
		z"/>
	<path class="st0" d="M955.96,1193.1c4.32-0.13,8.7-0.06,13.02-0.06v-0.06c4.83,0,9.59,0,14.42,0c4.64,0,5.78-2.48,5.34-6.67
		c-1.21-11.31-9.59-20.39-20.39-21.92c-15.31-2.16-27.19,3.18-31.83,14.3c-8.13,19.44,5.15,37.74,27.07,36.85
		c8.45-0.38,16.33-2.73,21.92-9.66c1.27-1.59,3.81-4.32,0.38-5.46c-4.57-1.46-9.15-4.57-14.36,0.7c-5.78,5.78-12.83,4.77-18.36-0.64
		c-1.59-1.59-2.73-3.3-2.35-5.4C951.38,1192.27,954.05,1193.16,955.96,1193.1z M956.59,1175.69c2.1-0.76,4.45-1.08,6.67-0.95
		c3.88,0.25,8.26,2.16,8.2,5.85c-0.13,4.51-5.02,1.59-7.69,2.41c-0.83,0.25-1.84,0.06-2.73,0.06l0,0c-1.14,0-2.29,0.13-3.43,0
		c-2.16-0.25-5.53,1.14-5.97-1.52C951.13,1178.74,953.99,1176.58,956.59,1175.69z"/>
	<path class="st0" d="M473.23,1200.47c-4.57-1.21-9.15-4.89-14.42,0.51c-6.35,6.42-16.77,4.32-20.39-2.99
		c-1.46-2.92-1.21-4.89,2.6-4.89c4.83,0,9.59,0,14.42,0v-0.19c5.02,0,10.04,0,15.12,0c4.51,0,5.85-2.29,5.34-6.67
		c-1.78-14.8-12.01-22.62-29.29-22.05c-13.53,0.38-22.94,8.32-24.78,21.03c-2.03,13.72,4.38,24.4,17.41,28.78
		c12.14,4.07,27.26,0.19,33.74-8.7C473.99,1203.71,476.28,1201.23,473.23,1200.47z M445.08,1175.18c1.52-0.32,3.18-0.64,4.7-0.51
		c4.38,0.32,9.28,2.1,9.02,6.54c-0.19,3.56-5.34,1.21-8.2,1.84c-0.64,0.13-1.4,0-2.03,0c-0.89,0-1.84,0.19-2.73,0
		c-2.35-0.57-6.42,1.59-6.73-2.16C438.86,1178.04,441.9,1175.88,445.08,1175.18z"/>
	<path class="st0" d="M596.23,1073.91c4.83,0.06,9.59,0,14.42,0c4.57,0,9.15-0.19,13.72,0.06c5.15,0.25,6.23-2.35,5.72-6.8
		c-1.21-11.5-9.47-20.2-21.16-22.05c-13.09-2.1-25.86,3.49-30.5,13.41c-5.65,12.01-2.67,25.86,7.05,32.72
		c11.05,7.81,29.73,6.99,39.01-1.78c1.97-1.84,4.77-3.81,4-6.73c-0.76-2.86-4.32-1.84-6.54-2.92c-3.49-1.72-5.72-0.25-8.39,2.1
		c-6.8,5.97-16.07,4.96-20.33-1.91C591.15,1076.7,590.83,1073.85,596.23,1073.91z M598.96,1056.25c1.46-0.51,3.18-0.83,4.7-0.7
		c4.32,0.32,9.34,1.84,9.02,6.42c-0.25,3.75-5.34,1.27-8.26,1.91c-0.64,0.13-1.33,0-2.03,0c-0.89,0-1.84,0.13-2.73,0
		c-2.29-0.38-6.1,1.4-6.48-1.65C592.8,1059.3,596.1,1057.33,598.96,1056.25z"/>
	<path class="st0" d="M874.95,1438.15c-4.77-1.4-8.89-4.38-14.1,0.95c-5.91,6.1-16.84,3.68-20.01-3.11
		c-1.52-3.37-1.14-5.27,3.05-5.27c5.02,0.06,10.1,0,15.12,0v-0.06c4.57,0,9.15-0.19,13.72,0.06c4.38,0.25,5.46-1.65,5.34-5.65
		c-0.44-9.34-4.77-16.65-13.02-20.27c-11.05-4.77-22.49-4.64-32.53,3.05c-8.26,6.35-11.18,17.85-7.5,28.72
		c3.68,10.86,12.33,15.5,23.06,16.52c11.05,1.08,20.9-1.59,28.02-10.93C877.68,1440.18,877.37,1438.85,874.95,1438.15z
		 M847.7,1413.05c0.64-0.25,1.33-0.38,1.97-0.44c5.27-0.7,11.5,2.67,11.37,6.16c-0.06,2.35-0.06,2.35-9.34,2.35
		c-1.14,0-2.35,0.25-3.37-0.06c-2.35-0.57-6.29,1.78-6.86-1.97C840.9,1415.4,844.77,1414.26,847.7,1413.05z"/>
	<path class="st0" d="M658.3,1073.91c4.83,0.06,9.59,0,14.42,0c4.32,0,8.7-0.25,13.02,0.06c5.85,0.44,7.18-2.41,6.35-7.43
		c-1.78-10.42-7.37-17.66-17.73-20.46c-11.31-2.99-22.05-1.72-30.37,7.24c-9.66,10.42-8.13,28.84,2.67,37.42
		c12.07,9.59,34.88,7.05,42.82-4.7c1.08-1.59,2.48-3.88,0.19-4.51c-4.57-1.21-9.09-5.27-14.3,0.25c-5.97,6.35-15.95,4.96-20.08-1.97
		C653.16,1076.39,652.96,1073.78,658.3,1073.91z M661.99,1055.99c1.52-0.32,3.18-0.44,4.7-0.25c3.81,0.38,8.26,1.97,8.07,5.85
		c-0.19,4.32-5.02,1.59-7.75,2.35c-0.64,0.19-1.33,0-2.03,0c-0.89,0-1.84,0.19-2.73,0c-2.35-0.51-6.42,1.65-6.73-2.03
		C655.25,1058.6,658.68,1056.69,661.99,1055.99z"/>
	<path class="st0" d="M574.25,1311.91c4.57,0,9.15,0,13.72,0v-0.25c4.83,0,9.59-0.06,14.42,0c4.89,0.06,6.23-2.1,5.46-6.86
		c-3.05-20.08-28.53-29.48-45.11-16.52c-8.58,6.67-10.42,15.69-8.77,25.8c1.59,9.78,7.43,15.76,16.9,18.62
		c13.22,3.94,27.32,0.7,33.8-8.26c0.95-1.27,3.94-3.43,0.64-4.7c-4.51-1.72-8.96-5.15-14.3,0.13c-6.1,5.97-15.69,4.7-19.89-1.59
		c-1.02-1.46-2.29-3.18-1.21-5.02C570.82,1311.59,572.66,1311.91,574.25,1311.91z M575.77,1294.63c2.1-0.95,4.38-1.21,6.67-0.89
		c3.75,0.57,8.2,1.84,8.07,5.85c-0.19,4.57-4.96,1.59-7.56,2.41c-0.64,0.19-1.33,0-2.03,0c-1.33,0-2.73,0.19-4.07-0.06
		c-2.03-0.38-5.34,1.4-5.85-1.52C570.43,1297.55,573.23,1295.77,575.77,1294.63z"/>
	<path class="st0" d="M391.46,1321.37c-5.08,4.7-13.91,2.29-17.54-3.24c-0.95-1.46-2.41-3.05-1.27-4.96
		c0.95-1.59,2.86-1.21,4.45-1.21c8.26-0.06,16.52,0.06,24.71-0.06c9.15-0.13,10.74-2.54,7.81-11.44
		c-5.27-16.07-26.43-23.06-41.61-13.66c-4,2.48-7.37,5.53-9.4,9.78c-5.85,12.52-1.14,28.84,9.72,34.37
		c15.31,7.75,34.37,2.99,41.36-10.42C403.47,1317.43,397.94,1315.27,391.46,1321.37z M377.35,1295.2c1.14-0.7,2.48-1.14,3.81-1.4
		c4.26-0.7,8.13,0.25,11.25,3.3c1.02,0.95,1.97,2.67,1.02,3.62c-2.73,2.8-6.42,0.19-8.64,1.27c-2.48,0-4.13,0.13-5.65-0.06
		c-1.84-0.25-4.57,1.08-5.27-1.52C373.16,1297.93,375.45,1296.4,377.35,1295.2z"/>
	<path class="st0" d="M507.66,1070.73c0,5.72,0.13,11.44-0.06,17.15c-0.06,2.54,1.4,6.35-2.16,7.12c-3.81,0.83-8.77,2.41-11.63-1.14
		c-2.54-3.11-3.68-1.72-5.97-0.44c-15.76,8.83-31.77-0.44-31.83-18.49c0-6.86,0.44-13.79-0.13-20.58c-0.57-6.92,2.29-8.26,8.64-8.26
		c6.35-0.06,7.88,2.22,7.43,8.01c-0.44,6.61,0.06,13.28-0.19,19.89c-0.25,5.91,1.97,9.85,8.01,10.8c5.21,0.83,10.93-3.62,11.44-9.47
		c0.64-7.24,0.95-14.68,0.32-21.92c-0.7-7.69,3.75-6.92,8.83-7.24c5.72-0.32,7.81,1.59,7.31,7.37
		C507.28,1059.23,507.66,1065.01,507.66,1070.73z"/>
	<path class="st0" d="M1140.21,1308.73c0,5.02,0,10.04,0,15.06c0,8.45-6.61,12.45-14.04,7.75c-2.6-1.65-3.62-1.21-5.72-0.25
		c-18.11,8.58-32.15-0.32-32.15-20.39c0-6.61,0.51-13.28-0.13-19.89c-0.64-6.99,3.18-7.05,8.26-7.05c4.96,0,8.45,0.25,7.94,6.8
		c-0.51,6.8-0.19,13.72-0.06,20.58c0.13,7.81,2.86,11.25,8.77,11.31c6.1,0,10.74-4.7,10.86-11.63c0.19-6.86,0.51-13.72-0.06-20.58
		c-0.7-8.45,5.08-5.91,9.4-6.42c5.21-0.57,7.56,1.08,7.05,6.8C1139.83,1296.79,1140.21,1302.76,1140.21,1308.73z"/>
	<path class="st0" d="M869.49,1287c-11.5-7.18-32.02-4.38-39.71,5.4c-6.73,8.58-7.18,18.23-3.18,27.76
		c4.57,10.86,14.17,14.04,26.94,14.23c8.77-0.13,18.49-2.35,23.95-12.33C884.55,1309.37,880.67,1293.99,869.49,1287z M852.84,1323.6
		c-7.12,0.06-12.71-6.48-12.77-14.93c0-9.02,4.96-15.06,12.45-15.06c7.75,0,12.58,5.65,12.64,14.74
		C865.3,1317.24,860.21,1323.53,852.84,1323.6z"/>
	<path class="st0" d="M1494.6,1292.53c-7.56-10.55-30.5-12.83-41.87-4.26c-3.37,2.54-5.97,5.53-7.43,9.53
		c-7.62,20.14,3.69,36.4,29.1,36.47c7.31-0.19,17.03-2.67,22.3-13.28C1501.46,1311.21,1501.08,1301.55,1494.6,1292.53z
		 M1471.22,1323.6c-7.24-0.06-13.02-7.18-12.71-15.76c0.32-8.45,5.97-14.49,13.41-14.23c7.5,0.25,12.26,6.23,12.07,15.25
		C1483.86,1317.24,1478.27,1323.66,1471.22,1323.6z"/>
	<path class="st0" d="M813.2,1427.48c0,5.46,0.19,10.99-0.06,16.46c-0.13,2.54,1.59,6.48-1.46,7.37c-3.94,1.21-9.28,2.41-12.39-0.64
		c-2.8-2.8-3.75-1.4-6.04-0.13c-16.01,8.64-31.64-0.64-31.77-18.81c-0.06-7.75,0.19-15.57-0.06-23.32
		c-0.13-3.81,1.02-5.53,5.02-5.15c2.03,0.19,4.13,0.19,6.16,0c3.56-0.32,4.83,1.21,4.7,4.77c-0.19,7.56-0.13,15.06-0.06,22.62
		c0.06,7.24,2.73,10.67,8.45,10.99c5.72,0.38,10.86-4.07,11.25-10.55c0.44-7.31,0.57-14.61,0.06-21.92
		c-0.51-7.5,4.38-5.85,8.45-5.85c3.94-0.06,8.51-1.33,7.88,5.65C812.82,1415.09,813.2,1421.31,813.2,1427.48z"/>
	<path class="st0" d="M1152.72,1308.6c0-5.91-0.13-11.88,0.06-17.79c0.06-2.22-1.33-5.97,2.03-6.29c3.75-0.32,8.7-2.54,11.37,1.52
		c2.16,3.3,3.05,2.48,5.59,0.7c7.69-5.34,16.2-4.83,24.14-1.21c7.24,3.37,8.89,10.42,8.7,17.98c-0.19,8.01-0.38,16.01,0.06,23.95
		c0.32,6.16-3.68,5.4-7.12,5.02c-3.43-0.38-8.96,2.67-8.77-4.83c0.19-7.56-0.13-15.06,0.06-22.62c0.13-6.1-1.91-10.36-8.51-10.93
		c-5.85-0.51-10.48,3.11-11.12,9.66c-0.7,6.99-0.19,14.17-0.51,21.22c-0.13,2.48,1.65,6.42-1.97,7.12
		c-4.13,0.83-8.64,0.44-12.9-0.06c-1.59-0.19-1.08-2.73-1.08-4.32C1152.66,1321.37,1152.72,1314.96,1152.72,1308.6z"/>
	<path class="st0" d="M540.76,1044.81c8.96,0.06,15.57,1.72,21.35,5.72c1.97,1.4,7.18,2.22,3.49,6.04
		c-2.54,2.61-5.34,8.83-10.99,3.37c-3.49-3.37-7.94-4.38-12.64-4.13c-2.92,0.19-6.73-0.06-7.12,3.75c-0.38,3.62,3.56,3.62,6.04,4.26
		c5.97,1.52,12.07,2.61,17.98,4.32c5.21,1.46,8.7,4.96,9.34,10.61c0.57,5.46-1.46,9.72-6.1,12.9c-11.18,7.75-32.34,6.1-41.49-3.49
		c-1.72-1.78-5.21-4.19-1.33-6.48c2.99-1.78,5.78-7.18,10.36-2.73c4.83,4.7,10.29,7.56,17.22,6.73c2.67-0.32,5.34-1.33,5.78-4
		c0.57-3.37-2.8-3.68-5.08-4.32c-5.08-1.33-10.29-2.22-15.38-3.56c-8.13-2.16-12.58-6.92-12.83-13.21c-0.19-6.8,4-11.75,12.52-14.17
		C535.43,1045.45,539.11,1045.13,540.76,1044.81z"/>
	<path class="st0" d="M1510.55,1308.35c0-5.97-0.13-11.88,0.06-17.85c0.06-2.29-1.02-5.91,2.54-6.1c3.62-0.13,8.32-2.41,10.74,1.72
		c1.84,3.18,2.8,2.61,5.02,0.95c7.37-5.59,15.63-4.77,23.57-1.97c6.1,2.16,9.02,7.56,9.15,14.04c0.19,9.59-0.13,19.25,0.13,28.84
		c0.19,7.12-4.96,4.32-8.2,4.57c-3.43,0.32-7.62,1.27-7.31-4.96c0.38-7.31,0.13-14.61,0.06-21.98c-0.06-7.56-2.99-11.25-8.83-11.44
		c-5.91-0.19-10.74,4-11.18,10.67c-0.51,7.5-0.64,15.12-0.13,22.62c0.44,6.23-3.56,5.34-6.99,5.08c-3.49-0.25-8.96,2.41-8.64-4.96
		C1510.74,1321.12,1510.55,1314.77,1510.55,1308.35z"/>
	<path class="st0" d="M1271.85,1334.27c-13.66-0.06-23.38-6.42-26.68-17.34c-3.37-11.31,0.7-22.87,10.36-29.61
		c9.91-6.86,29.29-5.21,37.61,3.49c1.97,2.03,5.53,4.38,2.8,7.94c-2.54,3.3-11.05,3.56-13.28,0.64c-3.62-4.7-8.26-6.54-13.91-4.89
		c-5.4,1.52-8.26,5.53-8.7,11.12c-0.44,6.04-0.51,11.94,5.72,15.69c6.1,3.68,12.33,2.99,17.73-3.37c5.34-6.29,9.02,0,12.07,1.84
		c3.81,2.29-0.7,4.83-2.48,6.67C1287.29,1332.49,1279.85,1334.34,1271.85,1334.27z"/>
	<path class="st0" d="M791.66,1334.27c-13.15-0.06-23.32-6.61-26.3-16.84c-3.68-12.64,0.64-24.27,11.5-30.88
		c10.42-6.35,29.23-4,36.72,4.83c1.65,1.97,5.4,3.94,2.48,7.37c-2.73,3.24-11.56,3.81-13.53,0.95c-4-5.97-9.34-7.12-15.5-4.51
		c-6.48,2.73-7.56,8.7-7.31,14.93c0.32,6.54,3.24,11.31,10.1,12.96c5.91,1.4,10.1-1.27,13.85-5.46c2.03-2.22,12.9,0.13,13.28,2.92
		c0.13,1.08-0.95,2.48-1.78,3.56C809.26,1331.92,801,1334.27,791.66,1334.27z"/>
	<path class="st0" d="M523.48,1019.59c-52.48,0-104.96,0.06-157.44-0.13c-2.48,0-7.18,2.1-7.18-2.1c0-2.86,4.57-1.59,7.05-1.59
		c105.4-0.06,210.81-0.06,316.21-0.06c1.4,0,2.73,0,4.13,0.06c1.21,0.06,2.35,0.44,2.41,1.84c0,1.33-0.95,1.91-2.29,1.97
		c-1.84,0-3.68,0.06-5.53,0.06C628.38,1019.59,575.9,1019.59,523.48,1019.59z"/>
	<path class="st0" d="M358.36,1007.77c110.1,0,220.27,0,330.38,0c0,0.57,0,1.14,0,1.72c-110.1,0-220.27,0-330.38,0
		C358.36,1008.91,358.36,1008.34,358.36,1007.77z"/>
	<path class="st0" d="M1377.51,1310.32c0-2.99-0.13-5.97,0.06-8.89c0.25-4.13-0.76-6.8-5.59-6.23c-4.38,0.51-4.7-2.16-4.7-5.53
		c0-3.43,0.51-5.97,4.83-5.53c3.56,0.38,5.21-0.64,5.65-4.77c0.7-7.05,7.81-8.89,12.2-12.96c1.21-1.14,2.6-0.06,2.67,1.72
		c0.13,1.84,0.19,3.68,0.06,5.46c-0.38,6.35-0.51,12.01,8.83,10.67c4.51-0.64,2.92,3.62,3.18,5.97c0.25,2.61,0.19,5.46-3.68,4.83
		c-7.5-1.21-8.26,3.05-7.81,8.89c0.32,4.32,0.19,8.7,0.06,13.02c-0.13,4.45,1.91,6.16,6.29,5.97c1.78-0.06,4.64-1.91,5.08,1.27
		c0.38,2.8,0.38,6.42-2.73,7.88c-5.78,2.8-11.88,3.05-17.92,0.25c-5.53-2.54-6.29-7.37-6.35-12.58
		C1377.51,1316.74,1377.51,1313.5,1377.51,1310.32z"/>
	<path class="st0" d="M425.51,1310.89c0-2.54-0.13-5.02,0.06-7.56c0.32-5.02,0.13-9.21-6.93-8.26c-4.13,0.57-3.24-2.8-3.3-5.15
		c-0.06-2.67-0.76-6.16,3.62-5.72c5.15,0.57,5.97-1.65,6.99-6.35c1.33-5.97,8.01-8.26,12.58-11.82c1.33-1.02,2.41,0.51,2.48,2.16
		c0.06,1.84,0.19,3.68,0,5.46c-0.51,6.35-0.64,11.94,8.77,10.67c4.38-0.57,2.86,3.62,3.18,6.04c0.32,2.86-0.19,5.34-3.81,4.7
		c-7.94-1.4-8.58,3.18-8.07,9.15c0.32,4.07,0.13,8.26,0.06,12.33c-0.06,4.64,1.97,6.73,6.73,6.29c1.84-0.19,4.83-1.4,5.02,1.59
		c0.13,2.73,0,6.29-3.11,7.81c-5.85,2.8-11.94,2.86-17.92,0.13c-5.34-2.48-6.48-7.24-6.29-12.64
		C425.58,1316.86,425.45,1313.88,425.51,1310.89z"/>
	<path class="st0" d="M513.38,1179.5c0-9.85,0.25-19.7-0.13-29.48c-0.19-5.27,2.67-5.65,6.42-5.08c3.62,0.57,9.34-2.67,9.28,5.15
		c-0.13,19.7-0.13,39.33,0,59.02c0.06,7.69-5.59,4.7-9.28,5.21c-3.81,0.51-6.54-0.13-6.35-5.27
		C513.63,1199.2,513.38,1189.35,513.38,1179.5z"/>
	<path class="st0" d="M645.28,1298.25c0-9.59,0.25-19.25-0.13-28.84c-0.19-5.08,2.22-6.16,6.16-5.34c3.56,0.7,9.59-2.92,9.66,4.83
		c0,19.7-0.06,39.39,0,59.09c0,3.05-1.02,4.45-4.26,4.77c-10.99,1.02-11.44,0.76-11.44-10.36
		C645.28,1314.26,645.28,1306.25,645.28,1298.25z"/>
	<path class="st0" d="M765.42,1189.16c0-5.72-0.06-11.44,0.06-17.09c0.06-2.29-1.14-5.85,2.29-6.29c3.49-0.44,8.13-2.54,10.48,1.91
		c2.16,4.07,3.43,2.99,5.72,0.32c2.16-2.48,4.89-3.94,8.45-3.75c3.49,0.19,7.5,0.19,8.64,4c1.21,4.32-2.86,6.8-5.15,9.78
		c-1.02,1.27-1.91,0.25-2.99-0.06c-6.73-2.03-10.23,0-10.99,7.43c-0.7,6.54-0.76,13.21-0.38,19.82c0.38,6.29-0.7,9.28-8.26,9.4
		c-8.2,0.13-8.13-4-7.88-9.66C765.61,1199.71,765.42,1194.43,765.42,1189.16z"/>
	<path class="st0" d="M998.78,1189.48c0-5.97-0.06-11.88,0.06-17.85c0.06-2.29-1.08-5.85,2.6-5.97c3.56-0.19,8.26-2.54,10.42,2.22
		c1.84,4.13,3.18,2.67,5.15,0.38c2.03-2.29,4.45-3.88,7.69-3.94c3.75-0.06,8.07-0.13,9.53,3.81c1.52,4.19-2.67,6.8-4.83,9.85
		c-1.14,1.59-2.35,0.32-3.56-0.06c-5.78-1.84-9.02-0.06-10.42,5.97c-1.91,8.13-1.08,16.46-0.95,24.65c0.06,4.96-1.65,6.73-6.35,5.85
		c-3.75-0.76-9.91,2.86-9.4-5.59C999.16,1202.31,998.84,1195.89,998.78,1189.48z"/>
	<path class="st0" d="M441.27,1409.62c4.83-5.08,9.28-9.02,16.07-6.67c2.67,0.95,6.42,2.03,4.83,5.08
		c-1.72,3.18-1.97,9.28-8.39,7.81c-7.18-1.65-10.93,1.21-11.31,9.09c-0.32,7.31-0.32,14.68-0.06,21.98c0.13,3.94-1.27,5.4-5.08,5.02
		c-2.48-0.25-5.02-0.06-7.56-0.06c-2.22,0-3.37-1.08-3.37-3.37c0-13.98,0-27.96-0.06-41.87c0-2.35,1.14-3.62,3.3-3.24
		c3.49,0.64,7.94-2.35,10.29,2.67C440.32,1406.83,440.57,1407.72,441.27,1409.62z"/>
	<path class="st0" d="M357.98,999.89c2.54-2.54,4.96-1.78,7.12-1.78c105.66-0.06,211.25-0.06,316.91-0.06
		c0.89,0,1.84-0.06,2.73,0.06c1.4,0.19,3.81-0.57,3.62,1.84c-0.13,2.16-2.41,1.52-3.88,1.59c-5.02,0.06-10.1,0.06-15.12,0.06
		c-100.83,0-201.66,0-302.42,0C364.08,1001.54,361.03,1002.37,357.98,999.89z"/>
	<path class="st0" d="M1057.61,1189.16c0,6.61-0.25,13.21,0.06,19.82c0.25,5.72-3.37,5.65-7.18,5.27c-3.56-0.38-8.83,2.1-8.77-5.08
		c0.13-12.96,0.19-25.99-0.06-38.95c-0.06-5.46,3.37-5.27,6.8-4.83c3.49,0.44,9.02-2.61,9.09,4.64
		C1057.68,1176.39,1057.61,1182.81,1057.61,1189.16z"/>
	<path class="st0" d="M571.96,1189.73c0-6.61,0.19-13.21-0.06-19.82c-0.19-6.42,4.38-4.38,7.62-4.51c3.43-0.13,7.69-1.4,7.62,4.7
		c-0.13,13.21-0.13,26.43,0,39.65c0.06,6.23-4.45,4.51-7.69,4.51c-3.3,0.06-7.75,1.52-7.56-4.7
		C572.09,1202.95,571.96,1196.34,571.96,1189.73L571.96,1189.73z"/>
	<path class="st0" d="M1416.33,1308.03c0-6.16,0.19-12.33-0.06-18.49c-0.19-4.13,1.27-5.46,5.46-5.46
		c10.29,0,10.29-0.19,10.29,10.36c0,10.99-0.13,21.92,0.06,32.91c0.13,8.32-6.1,4.51-9.85,5.21c-4,0.76-6.42-0.32-6.1-5.34
		C1416.64,1320.87,1416.26,1314.45,1416.33,1308.03L1416.33,1308.03z"/>
	<path class="st0" d="M681.55,1427.67c0,6.42-0.19,12.83,0.06,19.19c0.13,3.81-1.08,5.08-5.02,5.15
		c-10.55,0.19-10.55,0.38-10.55-10.04c0-10.99,0.32-21.98-0.13-32.91c-0.32-7.56,4.77-5.4,8.7-5.72c4.26-0.38,7.56-0.19,6.99,5.85
		C681.11,1415.28,681.55,1421.44,681.55,1427.67z"/>
	<path class="st0" d="M1232.97,1308.35c0,6.42-0.19,12.77,0.06,19.19c0.13,3.81-1.08,5.08-5.02,5.21
		c-10.55,0.25-10.55,0.44-10.55-10.04c0-10.99,0.25-21.92-0.06-32.91c-0.25-6.86,4.19-5.53,8.2-5.65c4.07-0.13,7.88-0.44,7.43,5.72
		C1232.65,1295.96,1232.97,1302.19,1232.97,1308.35z"/>
	<path class="st0" d="M824.38,1189.73c0,6.61-0.19,13.28,0.06,19.89c0.19,5.02-3.11,5.02-6.35,4.57c-3.49-0.44-9.15,2.54-9.28-4.51
		c-0.19-13.28-0.25-26.49,0.06-39.77c0.19-7.43,6.29-3.88,9.91-4.57c3.88-0.76,5.91,0.7,5.65,5.21
		C824.13,1176.96,824.38,1183.38,824.38,1189.73z"/>
	<path class="st0" d="M415.92,1120.61c-17.41,0-34.82,0.06-52.22-0.06c-1.84,0-5.02,1.08-5.15-1.65c-0.19-3.56,3.3-2.29,5.27-2.29
		c35.26-0.06,70.52-0.06,105.78,0c1.65,0,4.32-1.02,4.51,1.59c0.19,3.18-2.8,2.35-4.64,2.35
		C451.69,1120.67,433.77,1120.61,415.92,1120.61z"/>
	<path class="st0" d="M548.64,1235.73c17.34,0,34.75-0.06,52.1,0.06c1.91,0,5.53-1.46,5.4,1.91c-0.13,3.05-3.62,1.84-5.72,1.84
		c-34.5,0.06-69.06,0.06-103.56,0c-2.29,0-6.42,1.27-6.35-1.84c0.06-3.88,4.38-1.91,6.67-1.91
		C514.33,1235.6,531.49,1235.67,548.64,1235.73L548.64,1235.73z"/>
	<path class="st0" d="M548.58,1244.69c16.71,0,33.42,0,50.19,0c1.84,0,3.68,0.06,5.46,0.13c1.33,0.06,2.1,0.76,2.1,2.1
		c-0.06,1.21-1.08,1.33-1.97,1.4c-1.4,0.13-2.73,0.13-4.13,0.13c-34.56,0-69.19,0-103.75,0c-0.7,0-1.4,0.13-2.03-0.06
		c-1.52-0.38-4.26,1.02-4.07-2.03c0.13-2.1,2.41-1.65,3.94-1.65c10.1-0.06,20.14-0.06,30.24-0.06
		C532.57,1244.69,540.57,1244.69,548.58,1244.69z"/>
	<path class="st0" d="M547.88,1253.77c17.6,0,35.26-0.06,52.86,0.06c1.91,0,5.4-1.46,5.27,2.16c-0.13,2.67-3.3,1.72-5.21,1.72
		c-35.01,0.06-70.08,0.06-105.09-0.06c-1.91,0-5.46,1.33-5.27-2.22c0.13-2.73,3.37-1.59,5.21-1.59
		C513.13,1253.77,530.53,1253.77,547.88,1253.77z"/>
	<path class="st0" d="M416.62,1134.71c17.41,0,34.82,0,52.22,0.06c1.84,0,4.96-1.08,5.15,1.72c0.19,3.05-3.05,2.03-4.83,2.03
		c-35.26,0.06-70.52,0.06-105.85,0c-1.78,0-4.96,1.14-4.77-2.03c0.19-2.8,3.3-1.72,5.15-1.72
		C381.36,1134.65,399.02,1134.71,416.62,1134.71z"/>
	<path class="st0" d="M405.05,1257.78c-13.98,0-27.89,0.06-41.87-0.06c-1.72,0-4.83,1.14-4.7-2.16c0.13-2.48,2.86-1.72,4.51-1.78
		c28.4-0.06,56.74-0.06,85.14,0c1.72,0,4.45-0.57,4.38,1.84c-0.06,2.99-3.11,2.03-4.89,2.03
		C433.45,1257.84,419.29,1257.78,405.05,1257.78z"/>
	<path class="st0" d="M405.5,1235.73c13.91,0,27.89-0.06,41.81,0.06c1.78,0,4.89-1.21,5.08,1.59c0.19,2.92-2.86,2.22-4.77,2.22
		c-28.08,0.06-56.23,0.06-84.31,0c-1.84,0-4.96,0.83-4.7-2.22c0.25-2.8,3.3-1.59,5.08-1.59
		C377.67,1235.67,391.59,1235.73,405.5,1235.73z"/>
	<path class="st0" d="M404.86,1248.44c-13.91,0-27.89,0.06-41.81-0.06c-1.59,0-4.26,1.08-4.51-1.46c-0.32-2.73,2.41-2.16,4.07-2.16
		c28.53-0.06,57.12-0.06,85.64,0c1.72,0,4.38-0.32,4.19,2.16c-0.13,2.54-2.86,1.46-4.45,1.52
		C433.65,1248.44,419.29,1248.44,404.86,1248.44z"/>
	<path class="st0" d="M559,1153.71c-0.13,10.67-4.64,16.52-13.98,18.36c-1.72,0.32-3.81,1.4-4.57-1.14
		c-0.64-2.1-0.13-4.07,2.22-5.02c1.46-0.64,2.99-1.21,4.26-2.1c2.16-1.52,3.37-3.05,0-4.96c-3.68-2.1-5.59-9.78-3.43-12.71
		c1.02-1.4,13.09-2.03,14.42-0.57C559.95,1148.05,558.55,1151.23,559,1153.71z"/>
	<path class="st0" d="M687.84,1235.73c12.33,0,24.71-0.06,37.04,0.06c1.78,0,4.89-1.21,5.08,1.65c0.19,3.05-2.92,2.1-4.77,2.1
		c-24.91,0.06-49.87,0.06-74.78,0c-1.78,0-4.96,1.08-4.7-2.16c0.25-2.86,3.24-1.65,5.08-1.65
		C663.13,1235.67,675.52,1235.73,687.84,1235.73z"/>
	<path class="st0" d="M687.97,1248.44c-12.77,0-25.6,0-38.37-0.06c-1.4,0-3.75,0.76-3.88-1.52c-0.19-2.86,2.35-2.16,4-2.16
		c25.35-0.06,50.7-0.06,76.05,0c1.72,0,4.32-0.57,4.26,2.03c-0.06,2.67-2.8,1.65-4.38,1.65
		C713.07,1248.5,700.49,1248.44,687.97,1248.44z"/>
	<path class="st0" d="M688.16,1253.84c12.58,0,25.16-0.06,37.74,0.06c1.59,0,4.19-0.89,4.07,2.03c-0.13,2.1-2.29,1.84-3.88,1.84
		c-25.35,0-50.76,0-76.11,0c-1.72,0-4.38,0.44-4.32-2.03c0.06-3.18,3.11-1.84,4.83-1.84C663,1253.71,675.58,1253.77,688.16,1253.84
		C688.16,1253.77,688.16,1253.77,688.16,1253.84z"/>
	<path class="st0" d="M474.18,1128.48c-38.5,0-77.07,0-115.57,0c0-0.57,0-1.14,0-1.72c38.5,0,77,0,115.5,0
		C474.12,1127.34,474.12,1127.91,474.18,1128.48z"/>
	<path class="st0" d="M623.61,1026.45c-7.81,5.65-10.86,14.42-20.58,14.42c-4,0-4.7-1.21-2.86-4.89
		C605.5,1025.11,605.44,1024.99,623.61,1026.45z"/>
	<path class="st0" d="M1424.78,1276.45c-5.15,0.64-8.32,0.32-8.51-6.29c-0.19-7.24,4.07-5.97,8.26-6.23
		c4.57-0.25,7.69,0.13,7.43,6.35C1431.7,1276.07,1429.41,1277.54,1424.78,1276.45z"/>
	<path class="st0" d="M1225.6,1264.07c4.57-0.51,7.62-0.25,7.62,6.04c0,6.73-3.49,6.35-8.13,6.61c-5.21,0.25-6.99-1.21-7.12-6.73
		C1217.78,1263.49,1221.21,1263.56,1225.6,1264.07z"/>
	<path class="st0" d="M1049.93,1157.39c-5.15,1.02-7.62-0.51-7.69-6.61c-0.06-6.61,3.88-5.65,7.94-5.97
		c5.15-0.38,7.75,0.64,7.69,6.8C1057.87,1158.09,1054.37,1157.84,1049.93,1157.39z"/>
	<path class="st0" d="M817.07,1144.94c4.83-0.83,7.12,0.32,7.31,6.29c0.19,7.12-3.88,6.1-8.26,6.29c-4.77,0.19-7.56-0.32-7.56-6.42
		C808.43,1144.18,812.37,1144.62,817.07,1144.94z"/>
	<path class="st0" d="M673.36,1383.19c4.64-0.38,8.2-0.76,8.2,5.78c0,5.91-2.41,6.8-7.31,6.54c-4.45-0.19-8.58,0.57-8.45-6.35
		C665.99,1382.94,669.17,1382.56,673.36,1383.19z"/>
	<path class="st0" d="M578.63,1157.39c-5.27,1.27-6.67-1.08-6.93-6.42c-0.25-6.48,3.3-6.1,7.69-6.16c4.51,0,7.62,0,7.62,6.29
		C587.08,1157.96,583.46,1157.84,578.63,1157.39z"/>
</g>
</svg>
