<?xml version="1.0" encoding="utf-8"?>
<!-- Generator: Adobe Illustrator 26.3.1, SVG Export Plug-In . SVG Version: 6.00 Build 0)  -->
<svg version="1.1" id="Calque_1" xmlns="http://www.w3.org/2000/svg" xmlns:xlink="http://www.w3.org/1999/xlink" x="0px" y="0px"
	 viewBox="0 0 2000 2827" style="enable-background:new 0 0 2000 2827;" xml:space="preserve">
<style type="text/css">
	.st0{fill:#FFFFFF;}
	.st1{font-family:'UpheavalTT-BRK-';}
	.st2{font-size:100.1772px;}
	.st3{font-family:'Quarion-BoldDEMO';}
	.st4{font-size:249.4486px;}
	.st5{letter-spacing:6;}
	.st6{font-size:333.1795px;}
	.st7{letter-spacing:21.98;}
	.st8{font-size:191.0511px;}
	.st9{display:none;}
	.st10{display:inline;fill:#FFFFFF;}
</style>
<g id="titre_00000025428507988536483240000015306470537306736279_">
	<text id="soustitre" transform="matrix(1 0 0 1 84.4971 1567.8252)" class="st0 st1 st2">Un portail s’ouvre vers les 80’s</text>
	<text transform="matrix(1 0 0 1 66.9873 1449.9072)" class="st0 st3 st4 st5">Retro</text>
	<text transform="matrix(0.91 0 0 1 829.3125 1452.4033)" class="st0 st1 st6 st7">Pixel</text>
	<text transform="matrix(0 -0.6479 1 0 1927.6777 1567.8252)" class="st0 st1 st8">2022</text>
	<g class="st9">
		<path class="st10" d="M1466.91,1474.61c0,4.9,0,9.66,0,14.56c-154.17,0-308.18,0-462.36,0c0-4.87,0-9.62,0-14.56
			C1158.6,1474.61,1312.62,1474.61,1466.91,1474.61z"/>
		<path class="st10" d="M389.98,1488.91c0-4.82,0-9.49,0-14.39c117.14,0,234.2,0,351.49,0c0,4.67,0,9.42,0,14.39
			C624.45,1488.91,507.38,1488.91,389.98,1488.91z"/>
		<path class="st10" d="M1494.94,1489.22c0-4.94,0-9.69,0-14.61c99.96,0,199.79,0,299.87,0c0,4.79,0,9.61,0,14.61
			C1694.88,1489.22,1594.98,1489.22,1494.94,1489.22z"/>
		<path class="st10" d="M1134.99,1541.14c0-11.14,0-22.16,0-33.33c2.56,0,4.97,0,7.58,0c0.2,1.35,0.4,2.71,0.64,4.18
			c9.66-7.09,13.7-6.99,19.48,0.64c0.79-0.84,1.53-1.7,2.36-2.48c3.84-3.59,8.32-4.21,13.13-2.46c4.45,1.6,6.57,5.17,6.69,9.66
			c0.22,7.87,0.07,15.74,0.07,23.83c-2.81,0-5.66,0-8.86,0c0-2.46,0-4.95,0-7.47c0-4.45,0.03-8.88-0.02-13.33
			c-0.05-3.64-1.62-5.61-4.62-6.02c-2.97-0.39-5.41,1.4-6.25,4.79c-0.35,1.48-0.51,3.03-0.52,4.57c-0.05,5.78-0.02,11.56-0.02,17.51
			c-3,0-5.78,0-8.86,0c-0.05-0.93-0.13-1.87-0.13-2.83c-0.02-5.9,0.03-11.78-0.03-17.68c-0.03-3.96-1.53-5.95-4.55-6.34
			c-3.17-0.4-5.71,1.5-6.59,5.12c-0.37,1.57-0.51,3.22-0.52,4.84c-0.07,5.53-0.02,11.05-0.02,16.82
			C1140.99,1541.14,1138.14,1541.14,1134.99,1541.14z"/>
		<path class="st10" d="M82.86,1541.09c0-11.16,0-22.18,0-33.35c2.56,0,5.06,0,7.73,0c0.13,1.42,0.27,2.73,0.44,4.45
			c2.93-2.92,5.75-5.66,9.96-5.63c4.25,0.03,7.41,1.99,9.3,5.85c1.58-1.38,2.83-2.71,4.28-3.72c7.65-5.31,17.73-0.62,18.18,8.63
			c0.37,7.41,0.17,14.86,0.2,22.29c0,0.44-0.13,0.88-0.22,1.47c-2.83,0-5.59,0-8.76,0c0-1.67,0-3.27,0-4.85
			c0-5.36,0.07-10.7-0.03-16.06c-0.07-3.69-1.72-5.68-4.65-6c-3.03-0.34-5.34,1.33-6.22,4.8c-0.4,1.65-0.47,3.4-0.51,5.11
			c-0.08,5.44-0.07,10.89-0.1,16.31c0,0.17-0.13,0.32-0.29,0.66c-2.7,0-5.46,0-8.58,0c-0.05-0.93-0.13-1.89-0.13-2.83
			c-0.02-5.98,0.02-11.96-0.02-17.96c-0.03-3.57-1.48-5.59-4.21-6.07c-3.05-0.52-5.8,1.21-6.74,4.57c-0.47,1.72-0.59,3.57-0.61,5.36
			c-0.07,5.59-0.03,11.19-0.03,16.95C88.71,1541.09,85.86,1541.09,82.86,1541.09z"/>
		<path class="st10" d="M1118.72,1541.19c0-6.32,0.02-12.45-0.02-18.6c0-1.26-0.08-2.53-0.24-3.79c-0.3-2.6-1.84-4.13-4.4-4.42
			c-2.46-0.29-4.68,0.54-5.56,2.95c-0.74,2.07-1.11,4.38-1.18,6.59c-0.15,5.7-0.05,11.39-0.05,17.26c-3.08,0-5.91,0-9.07,0
			c0-4.23,0-8.36,0-12.5c0-2.98,0.03-5.98-0.05-8.96c-0.07-2.58-1.11-4.55-3.88-5.19c-2.58-0.61-5.24,0.44-6.42,2.88
			c-0.66,1.35-1.13,2.92-1.16,4.4c-0.17,5.43-0.13,10.87-0.17,16.31c0,0.98,0,1.95,0,3.1c-3.1,0-5.95,0-8.93,0
			c0-11.11,0-22.13,0-33.35c2.43,0,4.84,0,7.57,0c0.2,1.31,0.44,2.75,0.67,4.26c7.92-8.27,15.23-6.03,19.36,0.35
			c1.2-1.08,2.33-2.26,3.59-3.24c4.01-3.07,8.41-3.17,12.82-1.15c4.18,1.89,5.85,5.59,5.93,9.93c0.15,7.33,0.07,14.68,0.07,22.03
			c0,0.35-0.08,0.69-0.15,1.2C1124.67,1541.19,1121.91,1541.19,1118.72,1541.19z"/>
		<path class="st10" d="M628.8,1541.14c-3.12,0-5.9,0-9.1,0c0-1.04,0-2.01,0-2.97c0-6.08,0.03-12.15-0.02-18.23
			c-0.03-3.45-1.62-5.41-4.52-5.78c-2.78-0.35-5.27,1.25-6.12,4.28c-0.51,1.8-0.71,3.74-0.74,5.63c-0.08,5.61-0.03,11.21-0.03,17
			c-2.98,0-5.75,0-8.85,0c0-5.91,0.02-11.78-0.02-17.64c0-1.63,0-3.27-0.24-4.87c-0.34-2.39-1.77-3.99-4.23-4.31
			c-2.44-0.32-4.74,0.4-5.75,2.7c-0.91,2.09-1.48,4.48-1.57,6.76c-0.22,5.7-0.07,11.41-0.07,17.34c-2.97,0-5.8,0-8.78,0
			c0-11.12,0-22.14,0-33.32c2.49,0,4.9,0,7.47,0c0.24,1.35,0.49,2.75,0.74,4.21c7.85-8.24,15.3-6.08,19.36,0.51
			c0.64-0.67,1.25-1.33,1.89-1.97c3.77-3.74,8.19-4.77,13.23-3.08c4.9,1.63,7.04,5.48,7.23,10.18
			C629.02,1525.3,628.8,1533.08,628.8,1541.14z"/>
		<path class="st10" d="M449.72,1541.1c-3.17,0-5.85,0-8.71,0c0-11.14,0-22.16,0-33.38c2.46,0,4.94,0,7.45,0
			c0.22,1.35,0.44,2.68,0.66,4.08c9.42-7.15,13.97-7.01,19.63,1.03c0.56-0.81,0.94-1.62,1.53-2.22c3.69-3.83,8.11-4.92,13.16-3.34
			c4.89,1.53,7.2,5.31,7.38,10.03c0.32,7.85,0.08,15.72,0.08,23.76c-2.97,0-5.83,0-9.07,0c0-1.53,0-3.05,0-4.55
			c0-5.61,0.03-11.24-0.03-16.85c-0.03-3.12-1.55-4.97-4.25-5.46c-2.7-0.49-5.24,0.89-6.15,3.74c-0.61,1.85-0.89,3.89-0.93,5.85
			c-0.12,5.7-0.05,11.39-0.05,17.27c-2.97,0-5.73,0-8.86,0c0-2.98,0-5.93,0-8.88c0-3.89,0.03-7.8-0.02-11.69
			c-0.05-3.84-1.63-5.93-4.63-6.32c-3.07-0.4-5.86,1.69-6.62,5.14c-0.39,1.75-0.52,3.59-0.56,5.39
			C449.68,1530.1,449.72,1535.53,449.72,1541.1z"/>
		<path class="st10" d="M1518.95,1511.68c0.34-1.42,0.61-2.61,0.91-3.91c2.31,0,4.53,0,6.79,0c0.15,0.32,0.35,0.56,0.35,0.79
			c-0.02,10.25,0.13,20.49-0.15,30.74c-0.17,6.22-3.05,11.29-8.93,13.84c-6.47,2.81-13.08,2.95-19.23-1.06
			c-2.76-1.79-4.45-4.45-4.77-8.06c2.65,0,5.17-0.05,7.7,0.03c0.52,0.02,1.13,0.4,1.52,0.81c2.68,2.85,6.4,3.59,10.14,1.94
			c3.39-1.48,5.16-4.74,4.77-9.15c-3.72,4.01-8.22,5.09-13.21,3.93c-6.3-1.47-10.31-6.47-10.92-14.54c-0.27-3.59,0.2-7.5,1.4-10.9
			c3.51-9.86,14.71-12.39,22.51-5.41C1518.12,1511.06,1518.48,1511.31,1518.95,1511.68z M1518.34,1524.2
			c-0.34-1.43-0.54-3.15-1.16-4.72c-1.33-3.37-4.01-5.04-7.38-4.89c-3.18,0.13-5.76,1.95-6.42,5.59c-0.52,2.83-0.49,5.97,0.15,8.78
			c0.81,3.66,3.79,5.53,7.18,5.44c3.32-0.08,5.93-2.26,6.91-5.88C1517.97,1527.22,1518.07,1525.85,1518.34,1524.2z"/>
		<path class="st10" d="M865.85,1509.57c0-5.29,0-10.4,0-15.69c3.1,0,5.86,0,8.78,0c0,15.77,0,31.41,0,47.05
			c-5.07,1.28-7.52,0.66-8.22-2.26c-0.49,0.3-0.94,0.56-1.35,0.86c-6.54,4.94-15.81,3.1-19.56-4.23
			c-3.51-6.82-3.59-14.04-0.27-20.95c3.66-7.63,12.35-9.77,19.56-5.17C864.99,1509.32,865.26,1509.37,865.85,1509.57z
			 M866.07,1524.98c-0.51-2.38-0.66-4.4-1.36-6.2c-1.15-2.93-3.93-4.4-6.94-4.09c-2.54,0.25-4.47,2.11-5.24,5.12
			c-0.91,3.59-0.86,7.16,0.54,10.63c0.91,2.24,2.51,3.69,5.07,3.89c2.61,0.19,4.75-0.78,5.88-3.05
			C865.02,1529.24,865.46,1526.93,866.07,1524.98z"/>
		<path class="st10" d="M321.61,1509.66c0-5.56,0-10.68,0-15.99c2.97,0,5.73,0,8.63,0c0,15.82,0,31.55,0,47.42c-2.49,0-4.9,0-7.38,0
			c-0.29-0.81-0.57-1.62-0.94-2.65c-2.8,2.46-5.85,3.86-9.5,3.62c-6.5-0.4-11.29-3.99-12.72-10.63c-0.86-3.98-0.96-8.29-0.42-12.34
			C300.7,1508.46,312.06,1502.83,321.61,1509.66z M321.75,1524.37c-0.52-2.26-0.72-4.18-1.43-5.88c-1.15-2.78-3.83-4.16-6.77-3.93
			c-2.97,0.24-4.47,2.16-5.21,4.75c-1.04,3.64-1.01,7.33,0.37,10.89c0.91,2.34,2.61,3.86,5.27,4.01c2.61,0.15,4.75-0.96,5.81-3.2
			C320.79,1528.87,321.16,1526.43,321.75,1524.37z"/>
		<path class="st10" d="M1713.16,1511.38c0.29-1.35,0.51-2.41,0.78-3.59c2.49,0,5,0,7.75,0c0,14.88,0,29.74,0,44.77
			c-2.8,0-5.54,0-8.58,0c0-4.68,0-9.25,0-13.78c-0.44-0.07-0.69-0.17-0.76-0.1c-7.2,7.28-19.29,3.02-22.11-6.91
			c-1.4-4.94-1.35-9.82,0.1-14.71C1693.14,1507.62,1704.55,1502.72,1713.16,1511.38z M1713.06,1524.77
			c-0.07-0.02-0.15-0.03-0.22-0.07c-0.08-1.16-0.07-2.36-0.25-3.51c-0.61-3.76-3.45-6.59-6.71-6.77c-3.45-0.2-6.5,2.01-7.08,6.1
			c-0.44,3.12-0.19,6.47,0.52,9.55c0.66,2.83,3.12,4.4,6.15,4.4c3,0.02,5.26-1.52,6.39-4.21
			C1712.57,1528.57,1712.69,1526.61,1713.06,1524.77z"/>
		<path class="st10" d="M1597.86,1507.75c2.68,0,5.11,0,7.68,0c0.25,1.16,0.49,2.26,0.66,3.02c2.6-1.28,4.99-3.1,7.65-3.64
			c6.22-1.3,11.78,2.07,14.27,8.22c2.33,5.75,2.31,11.63,0.4,17.53c-2.43,7.48-12.71,13.73-22.04,5.41c0,4.92,0,9.54,0,14.29
			c-3.03,0-5.71,0-8.64,0C1597.86,1537.72,1597.86,1522.84,1597.86,1507.75z M1606.24,1524.69c0.12,0.03,0.22,0.08,0.34,0.12
			c0.13,1.26,0.17,2.53,0.42,3.77c0.67,3.3,3.49,5.78,6.56,5.91c3.13,0.15,5.65-1.75,6.69-5.24c1.04-3.47,0.93-6.98-0.32-10.38
			c-0.94-2.56-2.75-4.23-5.61-4.42c-2.85-0.19-5.04,1.13-6.18,3.57C1607.18,1520.11,1606.85,1522.47,1606.24,1524.69z"/>
		<path class="st10" d="M498.34,1507.62c2.73,0,5.26,0,7.8,0c0.25,1.13,0.47,2.17,0.76,3.47c0.45-0.32,0.81-0.51,1.08-0.78
			c6.13-6.56,16.51-3.94,20.09,3.47c3.24,6.72,3.4,13.72,0.3,20.47c-3.83,8.32-12.6,9.96-21.2,3.94c0,4.5,0,8.78,0,13.23
			c-3.08,0-5.86,0-8.83,0C498.34,1536.92,498.34,1522.4,498.34,1507.62z M506.85,1524.34c0.13,0.03,0.27,0.08,0.4,0.12
			c0.07,1.18,0.05,2.36,0.24,3.52c0.57,3.49,3.35,6.1,6.52,6.27c3.22,0.17,5.78-1.69,6.82-5.07c1.1-3.57,0.98-7.15-0.35-10.65
			c-0.99-2.61-2.92-4.18-5.7-4.35c-2.68-0.17-4.85,1.2-5.97,3.52C507.82,1519.75,507.47,1522.11,506.85,1524.34z"/>
		<path class="st10" d="M1665.62,1541.24c-2.66,0-5.46,0-8.64,0c0-1.01,0-1.97,0-2.92c0-5.98,0.03-11.96-0.02-17.95
			c-0.03-3.47-1.43-5.36-4.11-5.83c-3.08-0.56-5.75,0.88-6.82,4.03c-0.57,1.69-0.84,3.52-0.86,5.31c-0.1,5.7-0.03,11.39-0.03,17.27
			c-3.02,0-5.86,0-8.9,0c0-15.66,0-31.29,0-47.13c2.92,0,5.75,0,8.86,0c0,5.36,0,10.65,0,16.53c3.56-2.85,7.06-4.11,11.16-3.57
			c4.77,0.64,8.93,3.51,9.23,8.19C1666.01,1523.8,1665.62,1532.48,1665.62,1541.24z"/>
		<path class="st10" d="M970.58,1520.12c0.22-3.25-0.84-5.17-3.32-5.93c-3.98-1.23-7.58,0.66-10.77,5.8
			c-2.14-1.26-4.28-2.53-6.42-3.77c2.51-6.42,9.47-10.09,17.12-9.4c6.76,0.61,12.86,4.55,12.23,13.53
			c-0.22,3.25-0.03,6.52-0.03,9.77c0,4.16,0.22,4.35,4.31,3.74c0.34,4.79-0.67,7.13-3.47,7.9c-3.98,1.11-6.35,0-8.36-3.59
			c-3.25,1.33-6.35,3.07-9.66,3.83c-5.49,1.25-10.8-1.97-12.12-6.71c-1.55-5.59,1.01-10.7,6.99-12.54
			C961.38,1521.44,965.93,1521,970.58,1520.12z M970.4,1526.24c-1.58,0.19-3.07,0.17-4.43,0.56c-2.06,0.59-4.18,1.21-5.98,2.31
			c-0.79,0.49-1.3,2.22-1.13,3.25c0.15,0.89,1.35,2.07,2.27,2.29C966.13,1535.83,971.93,1530.84,970.4,1526.24z"/>
		<path class="st10" d="M1578.84,1520.49c0.34-3.37-0.78-5.48-3.2-6.29c-3.91-1.28-7.38,0.52-10.92,5.8
			c-2.14-1.26-4.28-2.54-6.47-3.84c1.67-3.84,4.31-6.35,7.85-7.85c4.42-1.85,9.02-2.04,13.57-0.64c5.19,1.6,7.94,5.48,8,11
			c0.05,3.89,0,7.79,0.02,11.7c0.02,3.94,0.37,4.23,4.28,3.47c0.54,4.11-0.66,7.09-3.18,7.89c-4.15,1.28-6.86,0.03-8.58-3.62
			c-3.03,1.31-5.95,3.03-9.08,3.84c-5.85,1.5-11.37-1.7-12.72-6.82c-1.5-5.76,1.23-10.52,7.41-12.55c2.04-0.67,4.21-1.01,6.35-1.35
			C1574.32,1520.88,1576.5,1520.75,1578.84,1520.49z M1578.82,1526.32c-1.43,0.13-2.73,0.08-3.93,0.42c-2.22,0.62-4.5,1.25-6.5,2.33
			c-0.81,0.44-1.36,2.16-1.25,3.2c0.1,0.89,1.23,2.14,2.12,2.38C1573.77,1535.86,1579.9,1531.78,1578.82,1526.32z"/>
		<path class="st10" d="M1324.43,1519.63c-1.53-0.91-3.62-2.16-5.9-3.52c2.09-4.53,5.44-7.28,10.04-8.56
			c3.74-1.04,7.52-1.13,11.24,0.05c5.27,1.67,8.02,5.36,8.09,10.89c0.05,3.81,0,7.62,0.02,11.41c0.02,4.28,0.29,4.52,4.43,3.99
			c0.32,4.42-0.81,7.04-3.35,7.82c-4.08,1.25-6.59,0.1-8.49-3.49c-3.29,1.31-6.39,3.07-9.72,3.81c-5.66,1.25-10.72-1.95-12.08-7.04
			c-1.45-5.39,1.01-10.26,6.79-12.12c3.74-1.2,7.77-1.67,11.69-2.09c2.06-0.22,2.46-0.93,2.06-2.73c-0.81-3.59-4.47-5.39-8.44-3.54
			C1328.56,1515.54,1326.81,1517.65,1324.43,1519.63z M1339.14,1526.22c-1.69,0.2-3.25,0.19-4.72,0.59
			c-1.97,0.54-4.01,1.13-5.73,2.19c-0.83,0.51-1.5,2.19-1.3,3.17c0.19,0.98,1.4,2.26,2.38,2.49
			C1333.97,1535.69,1340.09,1531.9,1339.14,1526.22z"/>
		<path class="st10" d="M240.62,1526.38c-7.5,0-14.75,0-21.91,0c-0.62,3.45,1.03,6.47,3.96,7.67c3.77,1.53,7.31,0.08,10.45-4.48
			c2.36,0.81,4.8,1.65,7.23,2.48c-2.24,6.57-8.32,10.33-15.87,9.98c-7.43-0.35-13.19-5-14.8-12.15c-1.4-6.27-0.89-12.3,3.17-17.58
			c3.88-5.04,10.84-6.94,17.21-4.99c5.91,1.82,10.09,7.53,10.55,14.44C240.71,1523.09,240.62,1524.44,240.62,1526.38z
			 M231.19,1519.63c-0.52-3.91-3.02-6.02-6.61-5.75c-3.39,0.25-5.54,2.48-5.51,5.75C223.1,1519.63,227.14,1519.63,231.19,1519.63z"
			/>
		<path class="st10" d="M276.6,1526.41c-7.53,0-14.78,0-21.96,0c-0.49,3.54,1.18,6.49,4.09,7.65c3.74,1.5,7.2,0.05,10.41-4.5
			c1.18,0.4,2.44,0.83,3.71,1.26c1.18,0.42,2.36,0.84,3.54,1.26c-2.6,6.93-8.66,10.45-16.75,9.86c-6.91-0.51-12.52-5.41-14.02-12.4
			c-1.33-6.2-0.72-12.13,3.25-17.31c3.86-5,10.89-6.93,17.22-4.94c5.83,1.84,10.04,7.5,10.48,14.21
			C276.69,1522.95,276.6,1524.4,276.6,1526.41z M267.23,1519.69c-0.61-4.03-3.13-6.1-6.71-5.8c-3.35,0.29-5.56,2.61-5.39,5.8
			C259.08,1519.69,263.04,1519.69,267.23,1519.69z"/>
		<path class="st10" d="M744.38,1526.38c-7.5,0-14.81,0-22.09,0c-0.2,3.77,1.5,6.62,4.33,7.72c3.71,1.43,6.88,0.12,10.43-4.52
			c2.36,0.81,4.8,1.67,7.26,2.51c-2.93,6.99-9.08,10.62-16.58,9.89c-7.48-0.72-13.16-5.44-14.22-12.69
			c-0.54-3.66-0.47-7.63,0.39-11.22c1.87-7.77,8.86-12.32,16.5-11.48c7.87,0.88,13.3,6.5,13.97,14.54
			C744.5,1522.75,744.38,1524.37,744.38,1526.38z M734.95,1519.77c-0.2-3.83-2.61-5.97-6.39-5.83c-3.44,0.12-5.75,2.44-5.71,5.83
			C726.88,1519.77,730.9,1519.77,734.95,1519.77z"/>
		<path class="st10" d="M912.41,1526.49c-7.5,0-14.8,0-22.08,0c-0.27,3.71,1.38,6.57,4.23,7.73c3.1,1.26,7.03,0.52,8.75-2.34
			c1.4-2.31,2.75-2.02,4.65-1.21c1.4,0.61,2.86,1.08,4.3,1.6c-2.53,6.57-9,10.6-15.94,9.99c-7.89-0.69-13.67-5.34-14.8-12.79
			c-0.56-3.66-0.47-7.63,0.37-11.22c1.87-7.82,8.71-12.27,16.48-11.46c7.97,0.84,13.46,6.59,14.02,14.75
			C912.5,1523.07,912.41,1524.61,912.41,1526.49z M890.72,1519.94c4.2,0,8.22,0,12.25,0c-0.2-3.64-2.34-5.76-5.78-5.85
			C893.45,1513.99,891.08,1516.06,890.72,1519.94z"/>
		<path class="st10" d="M790.47,1529.75c2.29,0.81,4.65,1.63,7.01,2.46c-2.02,7.15-9.62,10.53-15.79,10.06
			c-9-0.69-15.01-6.96-15.28-15.98c-0.07-2.43,0.03-4.92,0.56-7.26c1.72-7.73,7.94-12.47,15.72-12.27
			c7.84,0.2,13.43,5.22,14.81,13.26c1.15,6.66,1.15,6.66-5.56,6.66c-5.43,0-10.85,0-16.26,0c-0.1,4.03,1.5,6.57,4.63,7.67
			C784.02,1535.63,786.8,1534.4,790.47,1529.75z M788.37,1519.99c-0.44-4.2-2.81-6.17-6.79-5.88c-3.27,0.24-5.38,2.53-5.34,5.88
			C780.21,1519.99,784.19,1519.99,788.37,1519.99z"/>
		<path class="st10" d="M643.83,1526.54c0.59,4.82,2.12,6.89,5.46,7.77c3.66,0.96,6.27-0.29,9.47-4.74c2.33,0.79,4.75,1.63,7.2,2.46
			c-2.02,5.95-7.26,9.62-14.02,10.03c-6.79,0.4-12.77-2.97-15.45-8.96c-2.48-5.56-2.48-11.29-0.32-16.92
			c2.53-6.57,9.13-10.38,16.06-9.61c7.13,0.79,12.28,5.61,13.65,12.74c1.33,6.99,1.16,7.2-5.93,7.2
			C654.63,1526.54,649.31,1526.54,643.83,1526.54z M656.55,1519.75c0.1-3.45-1.95-5.63-5.39-5.81c-3.84-0.22-6.3,1.87-6.67,5.81
			C648.53,1519.75,652.54,1519.75,656.55,1519.75z"/>
		<path class="st10" d="M345.74,1526.54c0.37,4.5,2.02,6.81,5.27,7.73c3.72,1.08,6.25-0.12,9.67-4.72c2.36,0.81,4.8,1.67,7.25,2.51
			c-2.93,7.23-9.23,10.73-17.39,9.81c-6.99-0.79-12.66-6.03-13.51-13.19c-0.4-3.44-0.34-7.11,0.47-10.45
			c1.87-7.8,8.71-12.39,16.43-11.64c7.85,0.76,13.33,6.4,14.07,14.46c0.49,5.39,0.42,5.49-4.92,5.49
			C357.36,1526.56,351.66,1526.54,345.74,1526.54z M346.25,1519.92c2.17,0,4.16,0,6.15,0c2.06,0,4.09,0,6.15,0
			c-0.1-3.64-2.04-5.7-5.29-5.97C349.42,1513.65,346.99,1515.57,346.25,1519.92z"/>
		<path class="st10" d="M1774.57,1526.64c0.25,4.5,1.89,6.88,5.14,7.87c3.15,0.96,6.42-0.13,8.51-3.25c0.93-1.4,1.72-1.48,3.08-0.89
			c1.72,0.74,3.52,1.28,5.27,1.9c-2.19,6.27-8.26,10.25-15.17,10.09c-7.41-0.15-13.7-4.57-15.18-11.66
			c-0.83-3.96-0.84-8.36-0.02-12.3c1.6-7.63,8.22-11.98,16.21-11.53c7.41,0.42,12.86,5.48,14.12,13.08c1.1,6.69,1.1,6.69-5.51,6.69
			C1785.59,1526.66,1780.16,1526.64,1774.57,1526.64z M1787.33,1519.94c-0.34-3.76-2.38-5.73-5.75-5.85
			c-3.69-0.12-5.95,1.84-6.56,5.85C1779.09,1519.94,1783.13,1519.94,1787.33,1519.94z"/>
		<path class="st10" d="M160.44,1507.69c3.13,0,5.91,0,8.91,0c0,11.14,0,22.21,0,33.42c-2.75,0-5.34,0-7.97,0
			c-0.24-1.16-0.44-2.21-0.74-3.79c-2.65,3.2-5.59,4.89-9.54,4.68c-6.12-0.3-10.85-3.99-11.17-10.08c-0.42-7.94-0.1-15.92-0.1-24.11
			c2.66,0,5.51,0,8.78,0c0,0.76,0,1.62,0,2.49c0,5.9-0.03,11.8,0.02,17.68c0.02,3.51,1.5,5.48,4.33,5.98
			c2.73,0.51,5.54-1.08,6.57-4.08c0.61-1.75,0.84-3.71,0.89-5.58C160.51,1518.88,160.44,1513.43,160.44,1507.69z"/>
		<path class="st10" d="M1398.09,1524.69c-0.02-6.22,1.69-12.44,8.22-15.89c6.03-3.2,12.3-2.95,18.01,0.98
			c5.41,3.71,6.84,9.42,6.61,15.54c-0.49,12.62-10.53,19.8-22.23,16.11C1402.13,1539.33,1398.59,1533.96,1398.09,1524.69z
			 M1422.25,1524.49c-0.62-2.34-0.94-4.62-1.82-6.64c-1.1-2.48-3.19-3.84-6.07-3.79c-2.78,0.05-4.65,1.45-5.76,3.83
			c-2.04,4.35-1.99,8.76-0.03,13.13c1.11,2.46,3.15,3.72,5.83,3.76c2.66,0.03,4.87-1.15,5.91-3.59
			C1421.23,1529.07,1421.61,1526.75,1422.25,1524.49z"/>
		<path class="st10" d="M1071.35,1524.3c-0.02,13.13-10.26,20.95-22.36,17.09c-6.56-2.09-10.28-7.85-10.58-16.36
			c-0.34-9.3,5.16-16.8,13.18-17.96C1063.25,1505.38,1071.37,1512.46,1071.35,1524.3z M1062.66,1524.4
			c-0.66-2.29-1.04-4.62-1.97-6.72c-1.06-2.39-3.12-3.64-5.88-3.62c-2.78,0.02-4.65,1.4-5.8,3.77c-2.11,4.33-2.02,8.76-0.1,13.13
			c1.08,2.44,3.12,3.76,5.8,3.81c2.78,0.05,5.02-1.2,6.1-3.76C1061.67,1528.97,1062.04,1526.73,1062.66,1524.4z"/>
		<path class="st10" d="M1191.96,1507.74c3.12,0,5.9,0,9.13,0c0,1.01,0,1.97,0,2.92c0,5.9-0.02,11.8,0.02,17.68
			c0.02,3.24,1.31,5.11,3.89,5.76c2.53,0.64,5.54-0.76,6.66-3.51c0.69-1.7,0.98-3.67,1.01-5.53c0.12-5.7,0.05-11.39,0.05-17.26
			c3.12,0,5.97,0,9,0c0,11.05,0,22.08,0,33.32c-2.51,0-5.09,0-7.89,0c-0.24-0.96-0.49-2.09-0.69-2.93
			c-2.16,1.21-4.21,3.05-6.59,3.61c-7.63,1.8-14.05-2.97-14.49-10.99C1191.62,1523.24,1191.96,1515.62,1191.96,1507.74z"/>
		<path class="st10" d="M1466.96,1541.24c-3.1,0-5.88,0-9.03,0c0-2.16,0-4.23,0-6.29c-0.02-5.07,0.02-10.14-0.05-15.22
			c-0.03-2.48-1.06-4.38-3.64-5.09c-2.6-0.72-5.27,0.2-6.47,2.68c-0.84,1.74-1.36,3.76-1.42,5.68c-0.19,5.97-0.07,11.93-0.07,18.12
			c-3.07,0-5.98,0-9.05,0c0-11.09,0-22.09,0-33.5c2.17,0,4.31-0.1,6.44,0.07c0.54,0.03,1.18,0.83,1.48,1.42
			c0.35,0.69,0.39,1.55,0.64,2.73c0.69-0.74,1.18-1.28,1.7-1.79c3.56-3.45,7.73-4.08,12.32-2.53c4.35,1.47,6.88,4.75,7.06,9.08
			C1467.2,1524.76,1466.96,1532.9,1466.96,1541.24z"/>
		<path class="st10" d="M1237.12,1507.8c0.3,1.33,0.56,2.46,0.88,3.93c0.54-0.47,0.93-0.74,1.25-1.1c3.42-3.77,7.62-4.65,12.37-3.25
			c4.77,1.4,7.35,4.94,7.57,9.59c0.37,8.02,0.1,16.08,0.1,24.25c-3,0-5.86,0-9.1,0c0-2.17,0-4.31,0-6.45
			c0-4.89,0.03-9.79-0.02-14.68c-0.02-3.05-1.38-4.9-3.88-5.48c-2.75-0.64-5.38,0.42-6.5,3.13c-0.78,1.87-1.15,3.99-1.23,6.03
			c-0.17,4.8-0.05,9.61-0.05,14.41c0,0.98,0,1.95,0,3.03c-3.12,0-5.9,0-8.88,0c0-11.11,0-22.19,0-33.43
			C1232.08,1507.8,1234.49,1507.8,1237.12,1507.8z"/>
		<path class="st10" d="M1758.93,1541.27c-2.81,0-5.34,0-7.92,0c-0.27-1.16-0.51-2.26-0.84-3.69c-2.56,3.25-5.59,4.87-9.39,4.7
			c-6.32-0.29-10.85-3.99-11.27-10.33c-0.51-7.92-0.12-15.91-0.12-24.06c2.75,0,5.59,0,8.83,0c0,1.57,0,3.15,0,4.75
			c0,5.26-0.03,10.52,0.02,15.77c0.02,3.17,1.45,5.17,3.94,5.76c2.48,0.59,5.46-0.66,6.54-3.27c0.81-1.95,1.15-4.18,1.21-6.3
			c0.17-5.26,0.07-10.52,0.1-15.77c0-0.25,0.12-0.52,0.24-0.96c2.81,0,5.66,0,8.66,0C1758.93,1518.98,1758.93,1530,1758.93,1541.27z
			"/>
		<path class="st10" d="M174.63,1532.96c2.34-1.74,4.3-3.17,6.37-4.7c2.12,3.29,4.72,5.83,8.76,6.24c0.45,0.05,0.91,0.19,1.35,0.12
			c2.02-0.32,4.58-0.2,4.82-2.95c0.22-2.65-2.29-2.56-4.04-3.05c-2.95-0.83-6-1.45-8.85-2.53c-4.79-1.84-6.86-4.97-6.71-9.42
			c0.13-3.99,2.83-7.36,7.18-8.95c7.43-2.71,15.69-0.42,20.56,5.71c-1.8,1.6-3.62,3.22-5.59,4.97c-2.09-2.6-5.17-4.77-9.44-4.33
			c-0.62,0.07-1.42-0.05-1.84,0.29c-0.84,0.67-1.92,1.52-2.09,2.44c-0.1,0.62,1.04,1.9,1.87,2.17c2.56,0.88,5.21,1.47,7.85,2.07
			c6.99,1.62,9.96,4.55,9.93,9.88c-0.02,5.39-3.67,9.5-10.04,10.68c-6.39,1.2-12.27-0.19-17.1-4.77
			C176.52,1535.83,175.76,1534.46,174.63,1532.96z"/>
		<path class="st10" d="M1306.57,1528.72c2.33,1.25,4.47,2.39,6.59,3.52c-1.45,6.08-8.91,10.84-15.91,9.98
			c-10.7-1.31-16.45-9.91-14.46-21.6c1.67-9.81,10.4-15.71,20.02-13.4c5.33,1.28,8.86,4.67,10.72,10.31c-2.53,0.94-5,1.87-7.58,2.85
			c-0.42-0.84-0.72-1.47-1.04-2.09c-1.33-2.53-3.39-4.08-6.29-4.01c-3.02,0.08-5.09,1.77-6.2,4.53c-1.43,3.59-1.45,7.26-0.24,10.89
			c0.98,2.92,3.1,4.68,6.18,4.99c3,0.3,5.22-1.15,6.86-3.57C1305.66,1530.44,1306.01,1529.69,1306.57,1528.72z"/>
		<path class="st10" d="M1034.38,1517.6c-2.41,0.91-4.84,1.8-7.4,2.76c-0.44-0.84-0.79-1.55-1.16-2.24c-1.3-2.44-3.34-3.88-6.1-3.86
			c-2.9,0.02-4.97,1.6-6.13,4.21c-1.62,3.64-1.63,7.38-0.4,11.12c1.01,3.05,3.2,4.85,6.39,5.09c2.98,0.24,5.19-1.26,6.76-3.74
			c0.42-0.67,0.83-1.38,1.31-2.21c2.31,1.25,4.52,2.43,6.71,3.61c-2.58,6.5-8.83,10.46-15.45,9.94c-7.82-0.62-13.3-5.21-14.9-12.45
			c-1.03-4.63-0.79-9.18,1.11-13.58c2.63-6.05,8.59-9.74,15.18-9.5c6.69,0.24,11.78,3.81,13.97,9.82
			C1034.33,1516.8,1034.32,1517.09,1034.38,1517.6z"/>
		<path class="st10" d="M275.05,1480.59c0.05,0.74,0.1,1.42,0.17,2.09c-0.39,0.17-0.62,0.34-0.86,0.35
			c-0.62,0.05-1.26,0.03-1.9,0.03c-62.27,0-124.53,0-186.8,0c-1.52,0-3.59,0.51-2.63-2.48
			C146.98,1480.59,210.92,1480.59,275.05,1480.59z"/>
		<path class="st10" d="M1359.99,1515.19c-2.12,0-3.81,0-5.66,0c0-2.51,0-4.82,0-7.4c1.75-0.08,3.52-0.17,5.66-0.25
			c-1.62-7.26,5.17-9,8.8-13.11c0,4.28,0,8.56,0,13.11c2.39,0,4.52,0,6.86,0c0,2.66,0,5.04,0,7.62c-2.19,0-4.26,0-6.66,0
			c0,5.86-0.1,11.53,0.12,17.19c0.03,0.76,1.58,1.87,2.6,2.06c1.25,0.24,2.66-0.29,3.99-0.49c0.84,4.89-0.91,7.48-5.59,8.24
			c-5.11,0.81-9.42-1.84-9.84-6.52c-0.39-4.42-0.22-8.86-0.27-13.3C1359.97,1520.07,1359.99,1517.81,1359.99,1515.19z"/>
		<path class="st10" d="M800.94,1507.67c1.85,0,3.62,0,5.36,0c1.42-7.03,1.42-7.03,8.98-13.51c0,4.52,0,8.76,0,13.38
			c2.51,0,4.7,0,7.06,0c0,2.68,0,4.99,0,7.58c-2.17,0-4.3,0-6.72,0c0,5.86-0.12,11.46,0.12,17.04c0.03,0.81,1.67,1.99,2.73,2.22
			c1.23,0.27,2.65-0.32,4.42-0.59c-0.47,2.17-0.89,4.23-1.38,6.27c-0.07,0.3-0.34,0.67-0.62,0.81c-3.25,1.55-6.59,2.04-9.96,0.47
			c-2.95-1.38-4.15-3.98-4.2-7.08c-0.08-5.26-0.03-10.52-0.05-15.77c0-0.98,0-1.95,0-3.18c-1.99,0-3.77,0-5.75,0
			C800.94,1512.67,800.94,1510.3,800.94,1507.67z"/>
		<path class="st10" d="M390.17,1493.57c3,0,5.71,0,8.63,0c0,15.86,0,31.61,0,47.54c-2.83,0-5.59,0-8.63,0
			C390.17,1525.33,390.17,1509.57,390.17,1493.57z"/>
		<path class="st10" d="M934.4,1541.15c0-15.72,0-31.36,0-47.25c2.93,0,5.85,0,8.91,0c0,15.77,0,31.41,0,47.25
			C940.38,1541.15,937.47,1541.15,934.4,1541.15z"/>
		<path class="st10" d="M275.51,1475.33c-0.64,0.47-1.26,1.01-1.94,1.4c-0.27,0.15-0.71,0.03-1.08,0.03
			c-62.28,0-124.57,0-186.85-0.02c-1.33,0-3.35,0.61-2.73-2.24c64.04,0,128,0,191.97,0C275.1,1474.78,275.3,1475.05,275.51,1475.33z
			"/>
		<path class="st10" d="M82.44,1488.16c0.66-0.49,1.28-1.08,2.01-1.43c0.44-0.22,1.08-0.05,1.62-0.05c61.98,0,123.96,0,185.94,0.03
			c1.3,0,3.62-0.96,3.12,2.24c-64.05,0-128.05,0-192.06,0C82.84,1488.68,82.64,1488.41,82.44,1488.16z"/>
		<path class="st10" d="M1534.69,1507.79c6.72-0.44,6.72-0.44,8.16,4.99c0.99-1.28,1.7-2.78,2.88-3.54
			c1.57-1.01,3.52-2.09,5.29-2.04c3.89,0.1,5.12,2.8,3.17,6.05c-0.84,1.38-1.67,2.78-2.51,4.18c-4.06-2.97-6.67-2.01-7.65,2.97
			c-0.49,2.46-0.32,5.06-0.34,7.58c-0.05,4.33-0.02,8.66-0.02,13.18c-3.07,0-5.93,0-8.98,0
			C1534.69,1530.12,1534.69,1519.03,1534.69,1507.79z"/>
		<path class="st10" d="M553.74,1517.34c-3.51-3.02-6.29-2.26-7.36,2.09c-0.57,2.34-0.61,4.84-0.66,7.26
			c-0.1,4.7-0.03,9.4-0.03,14.32c-3,0-5.83,0-8.81,0c0-11.07,0-22.08,0-33.28c2.22,0,4.43,0,6.89,0c0.35,1.42,0.74,2.95,1.21,4.84
			c1.04-1.35,1.8-2.53,2.75-3.52c2.7-2.9,6.89-2.92,9.3-0.05c0.4,0.49,0.69,1.57,0.44,2.06
			C556.35,1513.2,555.02,1515.24,553.74,1517.34z"/>
		<path class="st10" d="M681.28,1541.1c-3.07,0-5.83,0-8.76,0c0-11.12,0-22.14,0-33.35c2.17,0,4.38,0,6.86,0
			c0.34,1.36,0.72,2.9,1.21,4.8c1.04-1.35,1.8-2.49,2.73-3.51c2.61-2.83,6.64-2.98,9.1-0.29c0.51,0.56,0.81,1.87,0.51,2.51
			c-1.01,2.09-2.34,4.03-3.57,6.05c-3.62-3.13-6.76-2.12-7.48,2.58c-0.57,3.72-0.47,7.57-0.57,11.36
			C681.21,1534.5,681.28,1537.73,681.28,1541.1z"/>
		<path class="st10" d="M1673.68,1507.8c2.98,0,5.83,0,8.83,0c0,11.16,0,22.18,0,33.37c-2.9,0-5.76,0-8.83,0
			C1673.68,1530.18,1673.68,1519.16,1673.68,1507.8z"/>
		<path class="st10" d="M1391.35,1541.24c-2.97,0-5.75,0-8.68,0c0-11.19,0-22.24,0-33.45c2.9,0,5.68,0,8.68,0
			C1391.35,1518.86,1391.35,1529.93,1391.35,1541.24z"/>
		<path class="st10" d="M432.7,1541.14c-2.97,0-5.65,0-8.56,0c0-11.17,0-22.23,0-33.45c2.81,0,5.58,0,8.56,0
			C432.7,1518.78,432.7,1529.85,432.7,1541.14z"/>
		<path class="st10" d="M570.63,1507.72c0,11.12,0,22.13,0,33.33c-2.83,0-5.59,0-8.61,0c0-11.02,0-22.09,0-33.33
			C564.81,1507.72,567.65,1507.72,570.63,1507.72z"/>
		<path class="st10" d="M697.6,1507.69c2.81,0,5.58,0,8.56,0c0,11.07,0,22.14,0,33.38c-2.81,0-5.56,0-8.56,0
			C697.6,1529.98,697.6,1518.91,697.6,1507.69z"/>
		<path class="st10" d="M1275.75,1507.8c0,11.21,0,22.23,0,33.4c-2.9,0-5.66,0-8.64,0c0-11.09,0-22.16,0-33.4
			C1269.93,1507.8,1272.7,1507.8,1275.75,1507.8z"/>
		<path class="st10" d="M300.19,1482.88c-0.64-1.82-0.08-2.49,1.8-2.48c21.22,0.03,42.45,0.03,63.67,0c1.75,0,2.63,0.45,1.92,2.48
			C345.15,1482.88,322.71,1482.88,300.19,1482.88z"/>
		<path class="st10" d="M367.65,1474.49c0.69,2.21-0.57,2.34-2.14,2.34c-6.72-0.03-13.43-0.02-20.15-0.02c-14.26,0-28.5,0-42.75,0
			c-1.43,0-3.18,0.35-2.49-2.33C322.52,1474.49,344.99,1474.49,367.65,1474.49z"/>
		<path class="st10" d="M911.64,1483.07c-22.5,0-44.81,0-67.19,0c-0.64-1.82-0.05-2.48,1.8-2.48c21.23,0.03,42.47,0.03,63.7,0
			C911.75,1480.59,912.16,1481.31,911.64,1483.07z"/>
		<path class="st10" d="M844.45,1474.52c22.41,0,44.71,0,67,0c0.47,2.39,0.47,2.48-1.52,2.48c-21.23,0.02-42.48,0-63.72,0.03
			C844.5,1477.03,843.84,1476.48,844.45,1474.52z"/>
		<path class="st10" d="M767.77,1474.56c18.17,0,36.28,0,54.4,0c0.37,2.39,0.37,2.48-1.57,2.48c-16.97,0.02-33.94,0-50.93,0.03
			C767.81,1477.08,767.24,1476.44,767.77,1474.56z"/>
		<path class="st10" d="M767.82,1483.02c-0.72-1.97,0.17-2.43,1.9-2.43c16.95,0.03,33.91,0.03,50.84,0c1.8,0,2.26,0.67,1.75,2.43
			C804.19,1483.02,786.02,1483.02,767.82,1483.02z"/>
		<path class="st10" d="M300.23,1488.98c-0.88-2.39,0.64-2.26,2.06-2.26c11.98,0,23.96,0,35.96,0c9.17,0,18.33-0.03,27.52,0.07
			c0.69,0,1.38,0.84,2.07,1.28c-0.69,0.35-1.36,1.03-2.06,1.03c-21.52,0.05-43.04,0.03-64.56,0.03
			C300.94,1489.1,300.67,1489.03,300.23,1488.98z"/>
		<path class="st10" d="M405.89,1512.73c-0.51-2.54-0.66-4.52,2.48-5.34c1.2-0.32,2.04-1.94,3.56-3.47
			c-7.7-1.25-3.91-6.45-5.02-10.21c3.29,0,6.24,0,9.29,0c0,3.64,0.47,7.38-0.12,10.95C415.31,1509.27,411.4,1512.02,405.89,1512.73z
			"/>
		<path class="st10" d="M911.57,1486.99c0.86,2.29-0.49,2.33-1.99,2.31c-9.17-0.02-18.32,0-27.48,0c-11.51,0-23.04,0-34.55,0
			c-0.72,0-1.48,0.12-2.16-0.07c-0.45-0.13-1.04-0.71-1.06-1.11c-0.02-0.39,0.56-0.89,0.99-1.18c0.25-0.17,0.71-0.05,1.06-0.05
			c21.4,0,42.8,0,64.2,0.02C910.84,1486.89,911.11,1486.94,911.57,1486.99z"/>
		<path class="st10" d="M934.39,1474.52c16.53,0,32.93,0,49.38,0c0.62,1.7,0.37,2.56-1.65,2.54c-15.32-0.03-30.65-0.05-45.97,0.02
			C934.27,1477.08,933.93,1476.31,934.39,1474.52z"/>
		<path class="st10" d="M983.81,1483.1c-16.55,0-32.88,0-49.24,0c-0.78-1.7-0.44-2.51,1.55-2.49c15.33,0.03,30.69,0.03,46.02,0
			C983.95,1480.59,984.4,1481.3,983.81,1483.1z"/>
		<path class="st10" d="M822.2,1486.88c0.89,2.68-0.78,2.43-2.21,2.43c-13.6,0-27.18,0-40.78,0c-3.17,0-6.35,0.08-9.5-0.07
			c-0.72-0.03-1.42-0.81-2.12-1.25c0.66-0.37,1.33-1.08,1.99-1.08C787.07,1486.86,804.56,1486.88,822.2,1486.88z"/>
		<path class="st10" d="M934.45,1486.88c0.79,0,1.5,0,2.22,0c14.98,0,29.95-0.02,44.93,0.05c0.83,0,1.63,0.76,2.46,1.16
			c-0.83,0.4-1.67,1.16-2.49,1.16c-14.98,0.07-29.95,0.05-44.93,0.05C935.28,1489.28,933.68,1489.55,934.45,1486.88z"/>
		<path class="st10" d="M221.77,1504.08c1.65-3.64,2.93-6.61,4.36-9.5c0.25-0.51,1.06-1.01,1.62-1.03c2.86-0.1,5.75-0.05,9.34-0.05
			c-3.25,3.61-5.83,7.01-9,9.72C226.89,1504.28,224.36,1503.79,221.77,1504.08z"/>
		<path class="st10" d="M1275.68,1502.11c-2.95,0-5.65,0-8.49,0c0-2.76,0-5.43,0-8.22c2.86,0,5.63,0,8.49,0
			C1275.68,1496.65,1275.68,1499.24,1275.68,1502.11z"/>
		<path class="st10" d="M697.59,1501.91c0-2.76,0-5.36,0-8.17c2.81,0,5.54,0,8.48,0c0,2.66,0,5.31,0,8.17
			C703.38,1501.91,700.64,1501.91,697.59,1501.91z"/>
		<path class="st10" d="M562.08,1493.65c2.83,0,5.49,0,8.38,0c0,2.75,0,5.41,0,8.26c-2.7,0-5.44,0-8.38,0
			C562.08,1499.28,562.08,1496.62,562.08,1493.65z"/>
		<path class="st10" d="M432.58,1502.06c-2.85,0-5.46,0-8.31,0c0-2.76,0-5.49,0-8.38c2.73,0,5.39,0,8.31,0
			C432.58,1496.46,432.58,1499.24,432.58,1502.06z"/>
		<path class="st10" d="M1382.74,1493.89c2.8,0,5.56,0,8.46,0c0,2.73,0,5.33,0,8.14c-2.76,0-5.53,0-8.46,0
			C1382.74,1499.4,1382.74,1496.73,1382.74,1493.89z"/>
		<path class="st10" d="M1682.22,1502.11c-2.76,0-5.53,0-8.46,0c0-2.73,0-5.31,0-8.09c2.78,0,5.44,0,8.46,0
			C1682.22,1496.53,1682.22,1499.14,1682.22,1502.11z"/>
	</g>
	<polygon class="st0" points="282.72,1312.78 360.89,1284.54 350.58,1258.17 276.64,1298.19 	"/>
	<g id="sousligne">
		<rect x="85.19" y="1474.49" class="st0" width="115.08" height="2.33"/>
		<rect x="85.19" y="1480.4" class="st0" width="115.08" height="2.7"/>
		<rect x="85.19" y="1486.82" class="st0" width="115.08" height="2.12"/>
		<rect x="685.25" y="1474.49" class="st0" width="55.41" height="2.33"/>
		<rect x="685.25" y="1480.4" class="st0" width="55.41" height="2.7"/>
		<rect x="685.25" y="1486.82" class="st0" width="55.41" height="2.12"/>
		<rect x="240.05" y="1474.49" class="st0" width="405.72" height="14.44"/>
		<rect x="1106.02" y="1474.49" class="st0" width="235.74" height="2.33"/>
		<rect x="1106.02" y="1480.4" class="st0" width="235.74" height="2.7"/>
		<rect x="1106.02" y="1486.82" class="st0" width="235.74" height="2.12"/>
		<rect x="1381.88" y="1474.49" class="st0" width="175.31" height="2.33"/>
		<rect x="1381.88" y="1480.4" class="st0" width="175.31" height="2.7"/>
		<rect x="1381.88" y="1486.82" class="st0" width="175.31" height="2.12"/>
		<rect x="1742.52" y="1474.49" class="st0" width="55.17" height="2.33"/>
		<rect x="1742.52" y="1480.4" class="st0" width="55.17" height="2.7"/>
		<rect x="1742.52" y="1486.82" class="st0" width="55.17" height="2.12"/>
		<rect x="770.93" y="1474.49" class="st0" width="294.97" height="14.44"/>
		<rect x="1596.99" y="1474.49" class="st0" width="115.43" height="14.44"/>
	</g>
</g>
</svg>
